<?xml version="1.0" encoding="UTF-8"?><svg id="_イヤー_2" xmlns="http://www.w3.org/2000/svg" viewBox="0 0 168.77 168.77"><defs><style>.cls-1{stroke-width:1.99px;}.cls-1,.cls-2{fill:none;stroke:#000;stroke-linecap:round;stroke-linejoin:round;}.cls-2{stroke-width:1.67px;}</style></defs><g id="font"><path d="M84.39,1c45.98,0,83.39,37.41,83.39,83.39s-37.41,83.39-83.39,83.39S1,130.36,1,84.39,38.41,1,84.39,1m0-1C37.78,0,0,37.78,0,84.39s37.78,84.39,84.39,84.39,84.39-37.78,84.39-84.39S130.99,0,84.39,0h0Z"/><path class="cls-2" d="M52.36,83.46c-.19,0-.34-.15-.34-.34V40.58c0-.19,.15-.34,.34-.34H116.6c.19,0,.34,.15,.34,.34v42.62c0,.14-.11,.26-.26,.26H52.36Z"/><path class="cls-2" d="M55.88,79.94c-.19,0-.34-.15-.34-.34V37.06c0-.19,.15-.34,.34-.34H120.12c.19,0,.34,.15,.34,.34v42.62c0,.14-.11,.26-.26,.26H55.88Z"/><polyline class="cls-1" points="54.97 114.44 54.97 132.15 119.78 132.15 119.78 116.11"/><polyline class="cls-1" points="105.66 103.7 87.38 121.49 69.1 103.7"/><line class="cls-1" x1="87.38" y1="94.89" x2="87.38" y2="119.84"/></g></svg>