<?xml version="1.0" encoding="UTF-8"?><svg id="_イヤー_2" xmlns="http://www.w3.org/2000/svg" viewBox="0 0 170 70"><defs><style>.cls-1{fill:#fff;}.cls-2{fill:#231815;}</style></defs><g id="_イヤー_7"><rect class="cls-1" width="170" height="70"/><g><path class="cls-2" d="M66.58,55.55c0-.56,0-1.27,.02-1.95-.27,.36-.56,.72-.86,1.08-.12,.14-.19,.21-.27,.21-.06,0-.12-.09-.17-.27-.11-.49-.3-.97-.5-1.29,1.18-1.33,2.07-2.96,2.71-4.79,.12-.36,.2-.67,.24-1.05,.51,.12,.99,.24,1.41,.42,.16,.06,.22,.1,.22,.23,0,.1-.04,.17-.15,.25-.1,.1-.17,.24-.3,.63-.27,.75-.55,1.47-.9,2.16v7.62c0,1.47,.03,2.21,.03,2.28,0,.15-.01,.17-.17,.17h-1.2c-.15,0-.17-.02-.17-.17,0-.09,.03-.81,.03-2.28v-3.25Zm12.15-5.4c0,.17-.01,.18-.15,.18-.08,0-.36-.02-1.12-.03-.42,.85-.99,1.58-1.67,2.19,.96,.51,2.08,.89,3.38,1.11-.2,.27-.36,.57-.48,.96-.1,.31-.13,.42-.27,.42-.08,0-.18-.03-.33-.08-1.37-.4-2.52-.9-3.48-1.53-.9,.55-1.92,.99-3.06,1.33-.15,.04-.24,.07-.31,.07-.15,0-.2-.1-.32-.38-.15-.34-.31-.61-.51-.82,1.16-.27,2.19-.62,3.08-1.08-.46-.44-.87-.92-1.2-1.47-.21,.25-.45,.52-.71,.79-.17,.15-.25,.24-.33,.24-.09,0-.17-.09-.31-.27-.2-.24-.39-.4-.63-.55v5.53c0,1.32,.03,1.96,.03,2.05,0,.17-.01,.18-.17,.18h-1.15c-.15,0-.17-.02-.17-.18,0-.09,.03-.73,.03-2.05v-4.81c0-.9-.03-1.35-.1-1.94,.58,.02,.97,.05,1.48,.1,.14,.02,.25,.09,.25,.18,0,.1-.07,.21-.12,.33-.04,.1-.06,.24-.08,.52,.96-.92,1.54-1.8,1.98-2.79,.11-.24,.23-.57,.29-.91,.46,.09,.84,.18,1.32,.31,.1,.03,.18,.09,.18,.18s-.06,.17-.12,.23c-.08,.08-.17,.24-.29,.5l-.19,.39h3.33c1.26,0,1.68-.03,1.77-.03,.13,0,.15,.02,.15,.15v.96Zm-1.68,6.84c.23-.21,.38-.4,.54-.66,.41,.24,.83,.52,1.14,.79,.09,.08,.14,.14,.14,.21,0,.09-.06,.15-.17,.2-.12,.06-.29,.18-.48,.34-1.77,1.54-3.48,2.62-6.66,3.29-.15,.03-.29,.04-.33,.04-.13,0-.18-.08-.29-.3-.2-.42-.39-.68-.65-.95,3.21-.49,5.1-1.51,6.75-2.97Zm-1.62-2.32c.09,.06,.12,.1,.12,.18s-.06,.14-.17,.17c-.12,.03-.27,.1-.5,.25-.82,.58-1.86,1.14-3.12,1.53-.17,.04-.27,.07-.35,.07-.13,0-.17-.07-.27-.27-.17-.28-.39-.54-.62-.75,1.44-.38,2.54-.84,3.22-1.32,.24-.17,.42-.34,.56-.52,.39,.19,.78,.44,1.11,.66Zm-.03,1.08c.21-.17,.42-.4,.55-.6,.42,.22,.76,.45,1.11,.7,.1,.08,.12,.12,.12,.2s-.04,.15-.13,.18c-.13,.04-.3,.14-.54,.33-1.21,.98-2.53,1.67-4.42,2.23-.18,.06-.29,.09-.36,.09-.12,0-.17-.09-.27-.28-.17-.33-.41-.63-.63-.84,2.22-.5,3.39-1.12,4.58-2.01Zm-2.12-5.44c.38,.56,.83,1.04,1.35,1.46,.5-.4,.92-.88,1.26-1.46h-2.61Z"/><path class="cls-2" d="M85.96,49.85c-1.39,0-1.89,.03-1.98,.03-.15,0-.17-.01-.17-.17v-1.23c0-.15,.01-.17,.17-.17,.09,0,.58,.03,1.98,.03h8.15c1.39,0,1.89-.03,1.98-.03,.15,0,.17,.02,.17,.17v1.23c0,.15-.01,.17-.17,.17-.09,0-.58-.03-1.98-.03h-2.91v3.54h2.08c1.29,0,1.74-.03,1.83-.03,.13,0,.15,.02,.15,.17v1.21c0,.15-.01,.17-.15,.17-.09,0-.54-.03-1.83-.03h-2.08v4.02h3.51c1.33,0,1.79-.03,1.88-.03,.13,0,.15,.01,.15,.17v1.24c0,.15-.01,.17-.15,.17-.09,0-.54-.03-1.88-.03h-9.38c-1.32,0-1.77,.03-1.86,.03-.13,0-.15-.01-.15-.17v-1.24c0-.15,.02-.17,.15-.17,.09,0,.54,.03,1.86,.03h.23v-4.35c0-1.04-.02-1.58-.12-2.28,.57,.01,1.2,.04,1.72,.1,.17,.01,.25,.09,.25,.18,0,.14-.04,.21-.1,.33-.08,.18-.11,.56-.11,1.63v4.38h2.33v-9.04h-3.57Z"/><path class="cls-2" d="M102.71,57.04c0-.46,.01-1.11,.03-1.67-.27,.27-.54,.52-.81,.75-.17,.12-.27,.2-.34,.2s-.14-.09-.2-.3c-.12-.42-.33-.85-.51-1.08,1.17-.93,2.28-2.16,3.03-3.33,.15-.23,.3-.51,.39-.79,.4,.21,.78,.45,1.11,.69,.13,.1,.2,.17,.2,.27,0,.07-.03,.12-.11,.17-.12,.07-.21,.18-.33,.36-.3,.48-.63,.96-.98,1.41v5.53c0,1.2,.03,1.77,.03,1.84,0,.15-.01,.17-.17,.17h-1.23c-.13,0-.15-.02-.15-.17,0-.09,.03-.65,.03-1.84v-2.21Zm2.61-8.82c.13,.09,.21,.17,.21,.27s-.09,.17-.24,.26c-.1,.06-.24,.18-.4,.4-.69,.85-1.52,1.71-2.58,2.49-.17,.12-.27,.18-.34,.18-.11,0-.18-.1-.29-.36-.17-.36-.42-.69-.65-.89,1.05-.63,1.96-1.47,2.69-2.37,.21-.27,.33-.47,.43-.69,.43,.18,.79,.44,1.17,.7Zm7.11,3.06c.17-.1,.2-.09,.29,.02,.84,.93,1.46,1.9,1.96,2.88,.08,.15,.04,.19-.1,.28l-.9,.5c-.18,.1-.21,.1-.29-.06-.15-.31-.3-.63-.46-.94-1.5,.18-3.22,.33-4.69,.45,.31,.06,.57,.12,.83,.18,.17,.04,.25,.1,.25,.21,0,.09-.06,.17-.18,.23-.06,.03-.15,.12-.24,.24h2.61c.15,0,.24-.02,.32-.05,.06-.03,.13-.06,.21-.06,.12,0,.22,.07,.6,.43,.33,.35,.39,.47,.39,.6,0,.12-.04,.19-.16,.27-.12,.06-.24,.19-.45,.5-.44,.61-.92,1.15-1.44,1.63,1.09,.51,2.43,.84,4.05,1.08-.21,.25-.39,.63-.51,1q-.15,.45-.62,.36c-1.59-.36-2.95-.84-4.11-1.53-1.14,.73-2.47,1.27-4.11,1.62-.45,.09-.46,.09-.64-.35-.13-.33-.3-.6-.53-.87,1.61-.25,2.94-.67,4.05-1.27-.48-.39-.92-.84-1.32-1.35-.48,.43-1.02,.82-1.58,1.15-.18,.1-.27,.17-.34,.17-.11,0-.17-.1-.3-.35-.17-.27-.38-.51-.6-.72,1.35-.71,2.19-1.38,2.85-2.25,.15-.18,.35-.51,.48-.85-.43,.04-.84,.08-1.2,.09-.38,.03-.67,.08-.81,.14-.11,.04-.2,.1-.29,.1-.13,0-.2-.12-.22-.27-.08-.44-.14-.9-.18-1.37,.39,.03,.83,.05,1.19,.03,.42,0,.84-.02,1.27-.03l.57-.58c-.81-.78-1.54-1.39-2.38-2.02-.06-.04-.09-.09-.09-.13s.03-.09,.1-.18l.6-.7c.12-.15,.15-.14,.27-.05,.18,.15,.38,.29,.57,.42,.34-.45,.72-.96,1.14-1.62,.15-.24,.27-.5,.39-.81,.44,.15,.95,.36,1.31,.56,.13,.07,.19,.15,.19,.25,0,.09-.08,.18-.18,.24-.12,.06-.24,.17-.44,.44-.46,.62-.91,1.21-1.39,1.79,.32,.25,.62,.51,.88,.78,.62-.71,1.17-1.38,1.68-2.05,.18-.23,.39-.54,.51-.84,.5,.2,.94,.39,1.29,.56,.17,.09,.22,.15,.22,.25s-.08,.2-.2,.24c-.13,.06-.25,.19-.52,.52-.71,.9-1.63,1.88-2.62,2.86,.96-.06,1.9-.12,2.83-.21-.21-.29-.44-.57-.66-.85-.11-.12-.08-.18,.09-.27l.76-.42Zm-4.21,5.17c.42,.56,.92,1.02,1.49,1.42,.51-.42,.96-.88,1.35-1.42h-2.83Z"/></g><g><path class="cls-2" d="M34.74,35.87l9.93-21.14h.72l9.84,21.14h-4.44l-1.55-3.4h-8.47l-1.55,3.4h-4.47Zm7.42-6.71h5.63l-2.8-6.53-2.83,6.53Z"/><path class="cls-2" d="M63.39,35.87V14.94h11.87v3.4h-7.84v4.2h6.26v3.4h-6.26v9.93h-4.03Z"/><path class="cls-2" d="M98.39,18.34h-5.22v17.53h-4.02V18.34h-5.22v-3.4h14.46v3.4Z"/><path class="cls-2" d="M119.73,32.47v3.4h-12.4V14.94h12.08v3.4h-8.05v4.2h6.5v3.4h-6.5v6.53h8.38Z"/><path class="cls-2" d="M139.95,28l5.63,7.87h-4.92l-4.41-6.47c-.92,.15-1.7,.18-2.74,.09v6.38h-4.03V15.12c8.92-1.73,13.71,1.49,13.71,6.83,0,2.33-1.28,4.8-3.25,6.05Zm-6.44-2.12c3.58,.51,5.55-1.46,5.55-3.88,0-2.27-1.82-4.14-5.55-3.52v7.39Z"/></g></g></svg>