<?xml version="1.0" encoding="UTF-8"?><svg id="_イヤー_2" xmlns="http://www.w3.org/2000/svg" viewBox="0 0 110.05 64.49"><defs><style>.cls-1{fill:#ff2083;}</style></defs><g id="_イヤー_7"><g><path class="cls-1" d="M7.19,27.4l-.87,.8-.04,.04-.51,.54-.43,.47-.29,.14-.87,.87-.29,.33-.18,.36-.29,.18-.51,.65-.04,.11-.25,.18s0,.04-.04,.07l-.11,.22-.14,.18-.11,.04s-.04,.04-.04,.07l-.04,.07-.14,.14-.07,.11h-.04l-.07,.11-.04,.11-.07,.11v.11l.04,.04h-.07v.33l-.07,.36-.07,.11-.22,.36-.33,.22-.22-.04-.07-.07-.04,.07-.43-.07-.22-.25-.04-.18,.04-.18,.04-.11v-.04s.04-.07,.04-.11l-.04-.33,.04-.11v-.18l.07-.4,.18-.36,.22-.58,.07-.07v-.11l.65-1.05,.14-.25,.11-.15,.14-.11,.07-.07,.4-.69,.04-.25,.14-.51,.4-.33,.07-.04,1.37-2.35,.18-.47v-.25l.11-.11,.14-.18,.11-.18h.11v-.18l.4-.47,.14-.11,.25-.36,1.16-1.77,.04-.04,.25-.36c.54-.8,.9-1.45,1.66-2.49l.14-.18,.76-1.19,.22-.33,.22-.43,.47-.51,.11-.33,.36-.4,.29-.4,.83-1.16,.14-.36,.51-.8,.14-.4,.69-.98,.25-.58,.98-1.48,.9-1.55,.18-.43,.33-.47,.79-1.3,.51-.83,.29-.72,.14-.47v-.18l.07-.25v-.18l.15-.65v-.61l.07-.25,.29-.76,.61-.51h.43l.04,.04,.11-.18v-.04c.14-.14,.36-.07,.36,.14l-.07,.36v.25l.14-.07v.14h-.07l-.07,.14-.07,.18-.11,.36-.33,.72-.25,1.05-.25,.47-.14,.11-.33,.47-.18,.43-.07,.11-.11,.25-.15,.4c-.04,.07-.07,.14-.07,.18v.07h.04l.04,.07h-.07l-.04,.04-.04,.11-.04,.22-.22,.4-.14,.54-.18,.25-.07,.07-.18,.22-.07,.25-.14,.18,.07-.04,.04,.14-.11,.11h-.07v-.04l.04-.11-.07,.11-.14,.14-.04,.14-.11,.04-.33,.54-.07,.14-.22,.36-.07,.25-.43,.54-.04,.15-.58,.83-.65,1.05-.36,.54-.36,.58-.07,.07c-.22,.29-.43,.58-.61,.9l-.04,.11-.18,.25-.11,.11-.65,.94-.07,.18-.04,.04-.07,.04s-.07,.07-.07,.11l-.36,.58-.22,.22-.33,.47-.07,.14-.07,.22-.07,.11-.11,.11-.14,.25-.04,.11-.11,.22-.11,.04-.18,.36-.65,1.01-.8,.79-1.66,2.46-.18,.36-.07,.25-.07,.36-.14,.29-.07,.22-1.01,.94-.22,.33-1.05,2.02-.4,.65-.25,.58-.18,.29-.14,.33-.33,.43v.18l-.07,.18-.11,.43,.43-.61,.07-.11,.4-.47,.33-.33,.11-.22,.11-.14,.29-.29,.14-.22,.65-.43,.58-.51,.72-.65,.14-.22,.11-.36,.14-.14,.33,.04,.14-.07,.76-.79,.25-.18,.4-.22,.51-.36,.36-.25,.18-.18,.4-.25,.07-.11,.22-.14,.33-.18h.04l.94-.58v-.04l.36-.22,.29-.18,.29-.25,.33-.22,.14-.07,.04-.25,.11-.04,.25,.04,.29-.07,.65-.11h.07l.18-.07,.04-.07,1.12-.47,.29-.07h.22c.4-.11,.76-.22,1.16-.22l.14-.04h.83l.07,.07c.43,.11,.83,.29,1.26,.54,.11,.07,.14,.18,.14,.33l-.07,.58,.04,.22-.22,.54-.18,.58-.22,.4-.25,.22-.43,.58-.04,.07-.15,.22-.22,.18-.07,.07c-.58,.58-1.23,1.16-1.84,1.74l-.15,.14-.11,.07-1.3,1.08-.51,.43-.18,.04-.47,.36-.14,.14-.36,.29-.4,.14-.36,.25-.22,.15-.29,.14-.4,.22-.11,.07-.14,.04c-.69,.4-1.41,.72-2.13,.98-.04,.04-.07,.04-.07,.04h-.04l-.18,.14h-.14l-.18,.11-.11,.07-.18,.04-.29,.04-.33,.04-.36,.11-.22,.11-.36,.15-.4,.07-.43,.11-.33,.11-.04-.07h-.29l-.25-.04-.25-.07-.15-.04-.07-.07h.04l-.25-.07h-.04l-.11-.11-.11-.14-.07-.18,.07-.14,.25-.11,.43-.11,.18-.07h.14l.11,.04,.14,.14,.14,.07,.25,.11,.25,.07h.14l.14-.04h.07c.11,0,.22,0,.36-.04l.07-.04h.33s.07-.04,.11-.04l.43-.11,.72-.14,.14-.04h.04l.14-.04c.14-.04,.25-.07,.4-.14l.11-.11,.4-.15,.4-.22,.22-.07,.51-.18,.36-.29,.11-.14,.07-.07,.29-.15,.22-.25,.14-.14h.18l.07-.11,.18-.11,.07-.07,.18,.04,.14-.07,.79-.69,.25-.14,.43-.18,.51-.33,.04-.04c.47-.4,.9-.8,1.3-1.19,.14-.15,.65-.58,1.23-1.16l.11-.22,.22-.22,.14-.18,.07-.07,.33-.22c.29-.33,.54-.61,.76-.94v-.04l.11-.18,.07-.11v-.11l.11-.22,.07-.18,.04-.18-.07-.25-.14-.11-.07-.07v-.07l-.04-.07,.04-.22-.47-.36-.18-.07-.14,.04-.11-.07h-.25c-.51,.07-1.05,.22-1.59,.4l-.18,.11-.94,.33-.25,.14-.11,.04h-.11l-.8,.36-.14,.11-.14,.04s-.11,.04-.11,.04l-.61,.33-1.3,.79-.65,.43-.33,.33-.18,.22-.33,.14-.43,.33-.62,.4-.04,.04c-.22,.14-.43,.33-.61,.51l-.33,.33-.43,.33Zm2.89-8.86l.14-.25-.14,.25Z"/><path class="cls-1" d="M21.47,29.1v.18l-.18,.18-.11,.14s-.04,.04-.04,.07v.11l-.14,.22-.04,.9s-.07,.54,.07,.72c.22,.25,.11,.25,1.01,.54l.61,.14h.47l.54-.07,2.64-.58,.51-.22,1.41-.47,.29-.18,.14-.07h.07l2.17-.9h.14l.25-.14,.33-.07,1.19-.43,.14-.04c1.3-.54,1.81-.87,3.07-1.45l.79-.29,.04-.07,.22-.11,.65-.22,.69-.29v-.07h.11l.43-.22,.04-.07,1.95-1.19,.18-.04c.25-.14,.51-.33,.8-.54,.07-.07,.18-.04,.22,.04v-.04l.14-.11,.14,.04,.11,.33-.18,.07-.33,.11-.18,.07-.83,.58-.18,.25h-.18l-.14,.07c-.33,.22-.69,.4-1.01,.58l-.04,.04-.25,.14-.15,.11h-.11l-1.16,.58-.04,.07-.14,.04-.29,.14-.07,.04-.51,.33-1.37,.58c-.43,.22-.87,.47-1.3,.65l-.11,.11-1.81,.87-.14,.11-.07-.11-.4,.25-.43,.07-.29,.14h-.04c-.47,.22-.94,.4-1.41,.58l-.54,.29-1.12,.54-.29,.07-.43,.07-.61,.18-.36,.04-.14,.07-.14,.11-.47,.11h-.07c-.43,.14-.94,.25-1.45,.33l-.11,.11-.18,.04h.04l-.72,.14-.22-.07-.4,.14-.87-.14-.8-.4-.36-.51-.18-.47-.11-.51v-.61l.04-.07-.04-.07v-.25l.25-.9,.25-.43,.29-.65,.22-.36,.07-.07,.11-.29,.22-.18,.11-.25,.22-.33,.11-.11,.4-.18,.14-.18,.25-.11,.29-.22,.07-.04,.36-.33,.33-.25,.25-.36,.14-.14,.18-.22,.14-.11,.22-.07,.07-.11,.18-.18,.29-.11,.18-.07c.8-.58,1.63-1.19,2.5-1.7l.07-.07,.36-.25,.47-.18s.07,0,.07-.04l.43-.29,.25-.14,.11-.04,.51-.07c.4-.14,.79-.29,1.19-.4l.33-.18h.36l.22-.07,.11,.07c.29,0,.58,0,.83,.04l.04-.04,.11-.04,.07,.04,.11-.04,.04-.04,.22,.07v-.04h.04l-.04,.07,.11,.07h.11l.04,.07h.04l.22,.11,.04,.04c.18,.14,.33,.25,.36,.43l.11,.04-.04,.07h.04l-.04,.04v.18l.04,.14-.07,.25-.07,.11v.22l-.14,.54-.29,.47-.36,.36-.4,.25-.33,.22-1.27,.65-.18,.14-.25,.07c-.83,.58-1.74,1.08-2.64,1.55l-.04,.07-1.05,.51-.47,.33-.94,.4-.69,.25-.98,.18-.58,.04h-.25l-.22-.11-.07-.18,.07-.11,.25-.51,.51-.47,.47-.18h.29l.25,.07,.29,.07h.47l.43-.07,.47-.18h.14l.07-.11,1.05-.36,.98-.47,.47-.25,.18-.22,.47-.18,.07-.14,.54-.18,.14-.14,.47-.36,1.63-1.37,.14-.18,.07-.25,.07-.11,.18-.54-.04-.04-.04-.07-.07-.18-.18-.22-.25-.11-.25-.07h-.4l-.25,.04-.14-.04c-.98,.22-2.02,.76-2.64,1.05l-.43,.22-.11,.11-.18,.14-.14-.04s-.04,.04-.07,.04v.07l-.22,.07-.07,.07h-.07l-.8,.43-.4,.33-.25,.25-.36,.11-.14,.07c-.33,.22-.61,.47-.94,.72l-.18,.22-.47,.43-.25,.25-.4,.36-.51,.51-.51,.58-.11,.11-.22,.33-.25,.36-.36,.36-.33,.51Z"/><path class="cls-1" d="M43.42,27.8l-.07,.29-.07,.14-.04,.11-.22,.07c-.18,.33-.36,.65-.58,.98l-.04,.07-.04,.22-.22,.22s-.04,.04-.04,.04c.18,.25,.36,.51,.51,.76l.11,.07,.14,.22,.11,.11,.22,.07,.04,.07v.29l.07,.25,.04,.36,.11,.25,.07,.11-.04,.04c.18,.51,.25,1.01,.36,1.55v.07l.14,.33-.07,.25,.18,.61,.04,.43-.11,.54,.04,.58v.25l-.07,.36-.11,.43-.04,.25-.04,.29-.22,.61-.04,.07c-.04,.18-.07,.4-.14,.61l.07,.36,.07,.07-.07,.07-.22,.18-.04,.29-.04,.33v.14l-.04,.11-.11,.11-.4,.51c-.11,.33-.25,.61-.4,.94l.11,.18-.07,.18-.29,.22-.22,.43,.04,.07-.07,.04-.18,.33-.04,.22-.07,.11-.07,.33-.18,.33-.04,.33-.14,.43-.11,.14-.36,.4-.11,.22-.22,.25-.29,.29-.11,.14-.29,.43-.25,.51-.25,.25-.07,.15-.29,.43-.11,.22-.43,.65-.65,.65c-1.05,1.45-2.17,2.86-3.33,4.23l-.07,.14-.36,.4-.25,.51-.18,.22-.22,.25-.51,.51-.18,.22-.29,.22-.83,1.01-.04,.04v.07l-.11,.04-1.19,1.37c-.04,.07-.11,.14-.18,.22v.07l.07,.15-.18-.11-.04,.04v.07l-.18,.22h-.04l-.36,.54-.9,1.08-.33,.43-1.08,.76-1.05,.65,.14,.07-.07,.14v.11l-.11-.04-.04-.11-.29,.11-.07-.04-.04,.04v-.04h-.18l-.29-.33-.14-.43c.07-.18,.14-.36,.18-.54l-.04-.33v.04l-.07-.04v-.22l-.07-.33,.04-.33v-.11l.04-.14v-.11l-.07-.07,.04-.04,.04,.04,.07-.25,.04-.07,.07-.04,.04-.14,.11-.04,.04-.04,.18-.36-.04-.29v-.29l.11-.25,.25-.4,.22-.4,.14-.43c.07-.43,.22-.83,.36-1.27v-.07l.07-.22h.04c.07-.25,.22-.47,.33-.72,.58-.98,.98-1.99,1.37-2.96l.11-.72v-.18l.33-.25,.18-.4v-.11l.07-.07,.36-.65c.18-.33,.33-.65,.47-.98v-.07l.07-.14,.04-.14,.11-.07,.29-.61,.11-.11,.58-1.08v-.11l.14-.22,.04-.14,.18-.33,.47-.9,.14-.14,.22-.4,.51-.94,.11-.29,.33-.47,.76-1.34,.18-.33,.18-.25,.07-.14c.07-.11,.11-.22,.18-.29l.11-.33,.98-1.59,.18-.54,.62-.76,.98-1.59,.83-1.37,.4-.83,.22-.33,.25-.22,1.45-2.35,.22-.43h.07l.14-.25v-.07l.11-.11,.29-.47c-.07-.07-.11-.14-.14-.22l-.22-.33-.18-.14v-.14l-.11-.07-.11-.18-.11-.07-.25-.33-.51-.54c-.69-.54-2.17-.29-2.64-1.16l-.14-.11v-.18l.07-.14,.11-.18h.04l.22-.14h-.04l.04-.07,.14-.07,.22-.14,.25-.07h.04l.04-.04,.11-.04,.07-.04v-.07h.04v.04h.22l.04,.04c.07,0,.14,0,.22-.04,.69-.14,.98-.14,1.34-.14l.33-.14,1.45-.33,.54-.11,.87-.14,.4-.11,.29-.07,.29-.11,.25-.22h.07l.14,.11h.14l.25-.04s0-.04,.04-.07l.65-1.37,.4-.4,.04-.22,.33-.25,.29-.4,1.55-2.78c.07-.22,.22-.43,.36-.65l-.04-.07,.04-.18,.25-.14,.43-.58,.29-.4,.15-.14,.36-.4,.25-.33c.33-.76,.9-1.45,1.34-2.13,.25-.51,.65-.9,1.01-1.3l.04-.11,.36-.36,.11-.18c.33-.54,.76-1.05,1.16-1.59l.07-.14,.87-1.01,.22-.4,.9-1.16,.51-.51v-.04l.07-.22,.18-.04,.07-.14,.51-.61,.25-.43,.22-.47,.14-.25,.18-.22h.18l.11-.18-.07-.04v-.11l.15-.25h.18v-.14l.07-.07,.07-.14v-.07l.14-.25v-.07l.07,.07,.14-.07,.07-.11h.07l.04-.04,.33-.25,.33-.07,.18-.11,.04,.07,.07-.07,.36-.22,.18-.18,.07-.11v-.11h.11l.04,.11,.33-.11h.25l.29,.33,.22,.43-.25,.79-1.12,.33-.04,.11-.29,.33-.25,.43-.18,.33-.87,.22-.43,.47,.11,.15-.22-.07-.07,.04-.62,1.01c-1.12,1.27-2.71,3.22-3.76,4.55-.62,1.08-1.23,1.45-1.92,2.49-1.37,1.66-2.28,3.62-3.76,5.21l-.29,.43c-.22,.43-.47,.83-.76,1.16l-.14,.36-.51,.58-.83,1.48-.04,.18v.11l-.11,.07-.07,.04-.29,.51h.07l.22-.04c1.27-.33,2.46-.65,3.18-.72h.43c.65-.07,1.55-.15,2.57-.22,.29-.04,.61-.11,.94-.14,.29-.04,.58-.04,.87-.07,.4,.04,1.41-.07,2.13-.14,.29-.04,1.19,.04,1.19,.11l.07,.04,.07,.18-.14,.07h-1.19l-1.23,.07-.22,.07h-.04c-.47-.04-.87,.04-1.27,.15v-.04c-.33,.04-.58,.04-.79,.11l-.11,.04h-.4c-.51,.04-2.02,.22-2.49,.25l-.15,.22-.07-.07h-.25l-.11-.04-.14,.14h-.07c-.69,.11-1.48,.29-2.17,.51l-.61,.22-.69,.22h-.18c-.14,.14-.25,.29-.33,.4l-1.45,2.31Zm-1.84,14.89l.25-.36,.22-.36,.04-.11,.04-.04,.22-.54v-.07l.33-.94,.11-.43,.14-.61,.07-.4,.04-.54,.14-.47,.07-.36,.18-.65c.04-.8,.04-1.63,0-2.46l-.04-.04-.04-.33-.04-.51-.14-.4-.04-.14-.29-.69-.14-.22-.11-.11-.14-.29c-.29-.36-.58-.61-.83-.94h-.04l-.33,.54-.04,.11-.04,.04-.14,.18v.25l-.33,.33-.18,.29-.25,.43-.11,.11-.98,1.55c-.51,.8-1.23,1.27-1.74,2.1-.36,.58-.72,1.19-1.05,1.81l-.11,.25-.18,.25s-.07,.07-.07,.11l-.14,.4-.29,.51-.87,1.48-.4,.98-.4,.51c-.07,.15-.14,.33-.25,.47v.07l-.14,.25-.76,1.45-.04,.33-.29,.29-.22,.51-.18,.4-.51,.94-.62,1.23-.18,.51-.33,.47c-.22,.36-.4,.76-.61,1.16l-1.41,2.68-.36,.83-.22,.29c-.98,1.92-1.23,4.59-1.74,6.61v.04l.07,.18,.04,.43,.04,.11,.65-.43,2.06-1.99,.18-.11,.33-.29,1.05-1.45,.43-.47,.33-.4,1.34-1.52,1.19-1.34,.54-.58,.76-1.05,.36-.29,.72-.87,.22-.29v-.04l.04-.04,1.01-1.27,.54-1.08,.43-.29,.72-1.16v-.11l.07-.11,.11-.07,.04-.14h.04l.04-.04v-.07l.14-.18c.25-.43,.51-.9,.8-1.34l.36-.65v-.07l.07-.04v-.11l.18-.33,.04-.07,.43-.94,.11-.25Zm1.16-17.1l-.72,.11-.4,.22-.33,.07-.22,.11-.47,.11-.36,.14-.25,.07-.36,.07,.11,.22c.76,.29-.14,.43,.43,.8v.04l.11-.04v.07c.29,.22,.47,.4,.62,.58l.07,.11,.22,.11,.22,.22,.07,.11,.11,.36,.14,.15v.04l.69-1.08,.14-.4,.43-.54,1.05-1.55,.18-.33,.07-.14-.22,.14-.18-.04c-.11,.07-.18,.07-.25,.07l-.9,.22Z"/><path class="cls-1" d="M62.72,26.61l-.14,.29c-.04,.07,0,.18-.04,.29l-.22,.36-.25,.36-.33,.22-.36,.36-.14,.18-.18,.18-.29,.22-.07,.04c-.61,.54-1.37,1.05-2.13,1.52v.07h-.11l-.4,.25v.04l-.07,.07h-.14s-.04,.04-.07,.04v.11h-.14l-.29,.22h-.04l-.18,.18-.25,.07-.14,.18-.25,.18-.14,.04-.4,.04-.14,.07-.22,.04h-.07c-.58,.22-1.08,.43-1.59,.58l-.14,.11-.11,.04-.14,.18-.11,.04-.25-.07h-.25l-.69-.04-.65-.07v-.04s-.11,.04-.14,.04c-.22-.04-.36-.07-.54-.14-.14-.11-.9-.47-.94-.72v-.33l-.11,.04-.04-.22,.25-.65,.25-.61,.14-.22,.43-.43,.25-.18,.07-.11,.61-.43,.54-.54,.11-.18,.14-.14,.8-.61,.22-.18,.18-.04,.07-.07,.29-.18,.07-.11,.04,.07,.87-.65,.18-.18,.11-.04,.33-.22,.25-.29,.33-.29,.51-.18,.47-.4,.29-.14,.33-.18c.36-.22,.69-.47,1.01-.65l-.51-.07c-.25,.04-.47,.07-.69,.07l-.11,.04-.04,.04-.11-.04h-.43c-.33,.04-.72,.11-1.12,.11h-.04l-.83,.04-.43-.11-.22-.14-.11-.18,.04-.25,.29-.43,.29-.11,.36-.07,.36-.04,.29,.11,.54,.14c.54,0,1.12,.04,1.74,.14l.4-.07,.58,.04,.69-.11,.11,.04,.61-.07c.11-.04,.22-.11,.33-.18l.33-.22,.29-.14,.11-.04,.18-.11,.29-.04,.33-.04c.25-.04,.51-.07,.76-.04l.25-.04,.11,.11c.14,.04,.25,.11,.4,.22l1.01-.11,.04-.04,.43-.11,.54-.04,.58-.18,.22-.04,.36-.04h.72l.29-.04,.43,.04h.04c.14,0,.33,0,.47-.04,.18,0,.4-.04,.61-.04l.14-.04,.07-.04h.07l.07,.07h.22l.22-.07h.25l.33,.04h.07l.25-.04,.22,.11h.11l.14-.04,.29,.04,.14,.04c.43,.07,.79,.14,1.01,.22l.15,.11h.14l.11,.15c.22,.11,.4,.25,.61,.4h.07l.11,.11,.18,.07,.11,.22,.14,.22v.11l-.22,.18-.11,.25-.33,.58-.14,.22v.04s-.07,.07-.07,.11l-.14,.22-.22,.07v-.29l.07-.11v-.07c.04-.15,.14-.33,.22-.47l.07-.18,.25-.65s-.04-.07-.04-.14l-.11-.18-.36-.18-.29-.22-.54-.14c-.79-.18-1.81-.18-2.39-.18h-.54l-.43,.04c-.4,0-.58,.07-.94,.11-1.59,.11-2.71,.25-3.76,.4l-.07,.04-.33,.07-.18,.11-.58-.04c-.58,.07-1.16,.18-1.81,.25l-.29,.11h-.29l-.65,.07-.18,.11c.36,.11,.69,.25,.94,.36h.07l.11,.11,.07,.04,.15,.11,.29,.18,.43,.47,.11,.25,.18,.43-.04,.65c-.04,.18-.07,.36-.14,.54Zm-.87-.25v-.22l.15-.33,.04-.51v-.04l-.18-.36-.22-.22-.25-.18-.29-.18-.25-.11-.33-.11-.29-.18-.22-.07s-.07-.04-.07-.04c-.47,.29-.9,.65-1.55,1.08l-.33,.25-.25,.22-1.3,.76-.36,.25-.25,.14-.72,.47-.04,.04-.18,.14-.54,.29-.43,.29-.4,.25-.18,.15-.51,.36-.04,.04-.4,.47-.33,.43-.18,.25s-.04,.04-.07,.04c-.25,.29-.47,.61-.58,.9v.07l-.04,.14-.07,.18v.22l-.04,.07-.04,.11c.04,.29,.11,.54,.29,.69h.07l.22,.14c.07,0,.14,.04,.22,.04,1.19,.07,1.45-.04,2.64-.43,.51-.14,1.05-.36,1.55-.58l.04-.07h.11l.43-.22,.29-.29,.62-.33,.14-.04h.07l1.12-.76,.11-.11,.07-.04c.29-.22,.58-.47,.87-.72l.11-.14,.07-.11,.22-.18,.22-.25,.11-.18,.14-.04,.07-.14,.11-.11,.07-.11h.07c.29-.4,.54-.76,.69-1.12Zm1.41-3.94c-.25-.14-.72,.04-1.08,.18l1.08-.18Z"/><path class="cls-1" d="M71.8,29.17l-.07,.14,.29-.25,.51-.36,.15-.11,.07-.04h.07v-.04l.29-.11-.14-.14h.22l.65-.61h.11l.58-.58,.65-.4,.61-.47,.07-.07h.04l.69-.54,.04-.04,1.01-.72v.04l.65-.43,.18-.18,.14-.04,.33-.22,.07-.07h.04l.72-.43,.29-.29,.22-.14,.54-.22,.4-.36,.4-.22,.76-.25,.33-.14c.25-.14,.69-.36,1.19-.58l.22-.18,.65-.25,.65-.22,.11-.07,.33-.18,.4-.14,.25-.11,.47-.04c.61-.18,1.19-.29,1.66-.25l.22-.07,.15,.15c.18,.07,.33,.18,.43,.29,.04,.04,.07,.07,.07,.14l.25,.29-.07,.94-.43,.87-.43,.14h-.4l-.22-.25v-.36l-.18,.14v-.18l.07-.04,.04-.18-.04-.25-.07-.47-.14-.18-.54,.07-.51,.22-.18,.04-.29-.04-.4,.18-.22,.04-1.45,.29c-.69,.29-1.27,.58-1.48,.69l-.22,.11-.18,.18-1.45,.76-.54,.33-.22,.22-.69,.36-.18,.11-.33,.25-.54,.36-.22,.25-1.05,.69-1.55,1.3-.22,.33-.25,.18-.47,.51-.43,.4-.14,.07-.29,.18-.25,.25-.04,.07-.29,.25-.33,.36-.18,.18-.15,.11-.36,.36-.14,.25-.14,.11-.14,.18-.36,.33-.61,.61-.18,.29-.14,.18-.18,.33-.07,.22-.04,.07-.07,.18-.22,.22-.58,.43-.36,.25-.33-.07-.18-.25v-.04c-.07-.11-.11-.22-.07-.36v-.14l.07-.07,.11-.43-.07,.07-.04-.14,.11-.25,.14-.43,.25-.36,.04-.07v-.07l.14-.11,.11-.18v-.07l.33-.25h.07l.11-.07,.43-.61,.25-.36,.11-.04,.18-.36,.22-.54,.25-.22,.07-.22,.4-.51,.11-.07,.47-.72v-.14l.62-.76,.36-.61,.14-.22,.18-.33,.04-.11,.07-.07,.25-.36v-.11l.22-.36,.22-.04,.11,.07,.22-.25,.11-.25,.04-.18v-.11l-.14-.07,.11-.11-.04,.07,.11-.14-.04-.04-.14,.18c-.18,.18-.33,0-.33-.18l.07-.07v-.07l.04-.11,.11-.18,.04-.07-.07-.11-.04,.04-.18-.07v-.11l.07-.07,.14-.04h-.07l.07-.04h-.07l-.04-.14,.14-.22,.18,.11,.11-.18v-.14l.04-.11-.07-.04,.18-.04v-.18l.07-.04h.07l.14-.15h.18l.25,.04,.18,.04,.14-.07v-.07l.14-.11,.14,.04h.11l.07,.07-.04,.04-.18,.07c.29,.11,.43,.29,.47,.47l.04,.04-.04,.11c0,.43-.36,.94-.76,1.41l.04,.07-.4,.51-.22,.04-.33,.36-.14,.18-.11,.25h-.04c-.18,.25-.36,.54-.58,.76,0,.04-.04,0-.04,0l-.22,.33-.07,.22-.14,.25-.33,.54-.22,.25-.07,.15-.22,.36-.43,.69-.25,.54-.22,.36-.18,.18-.07,.07Z"/><path class="cls-1" d="M88.97,29.1v.18l-.18,.18-.11,.14s-.04,.04-.04,.07v.11l-.14,.22-.04,.9s-.07,.54,.07,.72c.22,.25,.11,.25,1.01,.54l.61,.14h.47l.54-.07,2.64-.58,.51-.22,1.41-.47,.29-.18,.14-.07h.07l2.17-.9h.14l.25-.14,.33-.07,1.19-.43,.14-.04c1.3-.54,1.81-.87,3.07-1.45l.8-.29,.04-.07,.22-.11,.65-.22,.69-.29v-.07h.11l.43-.22,.04-.07,1.95-1.19,.18-.04c.25-.14,.51-.33,.8-.54,.07-.07,.18-.04,.22,.04v-.04l.14-.11,.14,.04,.11,.33-.18,.07-.33,.11-.18,.07-.83,.58-.18,.25h-.18l-.14,.07c-.33,.22-.69,.4-1.01,.58l-.04,.04-.25,.14-.15,.11h-.11l-1.16,.58-.04,.07-.14,.04-.29,.14-.07,.04-.51,.33-1.37,.58c-.43,.22-.87,.47-1.3,.65l-.11,.11-1.81,.87-.14,.11-.07-.11-.4,.25-.43,.07-.29,.14h-.04c-.47,.22-.94,.4-1.41,.58l-.54,.29-1.12,.54-.29,.07-.43,.07-.61,.18-.36,.04-.14,.07-.14,.11-.47,.11h-.07c-.43,.14-.94,.25-1.45,.33l-.11,.11-.18,.04h.04l-.72,.14-.22-.07-.4,.14-.87-.14-.8-.4-.36-.51-.18-.47-.11-.51v-.61l.04-.07-.04-.07v-.25l.25-.9,.25-.43,.29-.65,.22-.36,.07-.07,.11-.29,.22-.18,.11-.25,.22-.33,.11-.11,.4-.18,.14-.18,.25-.11,.29-.22,.07-.04,.36-.33,.33-.25,.25-.36,.14-.14,.18-.22,.14-.11,.22-.07,.07-.11,.18-.18,.29-.11,.18-.07c.8-.58,1.63-1.19,2.5-1.7l.07-.07,.36-.25,.47-.18s.07,0,.07-.04l.43-.29,.25-.14,.11-.04,.51-.07c.4-.14,.79-.29,1.19-.4l.33-.18h.36l.22-.07,.11,.07c.29,0,.58,0,.83,.04l.04-.04,.11-.04,.07,.04,.11-.04,.04-.04,.22,.07v-.04h.04l-.04,.07,.11,.07h.11l.04,.07h.04l.22,.11,.04,.04c.18,.14,.33,.25,.36,.43l.11,.04-.04,.07h.04l-.04,.04v.18l.04,.14-.07,.25-.07,.11v.22l-.14,.54-.29,.47-.36,.36-.4,.25-.33,.22-1.27,.65-.18,.14-.25,.07c-.83,.58-1.74,1.08-2.64,1.55l-.04,.07-1.05,.51-.47,.33-.94,.4-.69,.25-.98,.18-.58,.04h-.25l-.22-.11-.07-.18,.07-.11,.25-.51,.51-.47,.47-.18h.29l.25,.07,.29,.07h.47l.43-.07,.47-.18h.14l.07-.11,1.05-.36,.98-.47,.47-.25,.18-.22,.47-.18,.07-.14,.54-.18,.14-.14,.47-.36,1.63-1.37,.14-.18,.07-.25,.07-.11,.18-.54-.04-.04-.04-.07-.07-.18-.18-.22-.25-.11-.25-.07h-.4l-.25,.04-.14-.04c-.98,.22-2.02,.76-2.64,1.05l-.43,.22-.11,.11-.18,.14-.14-.04s-.04,.04-.07,.04v.07l-.22,.07-.07,.07h-.07l-.8,.43-.4,.33-.25,.25-.36,.11-.14,.07c-.33,.22-.61,.47-.94,.72l-.18,.22-.47,.43-.25,.25-.4,.36-.51,.51-.51,.58-.11,.11-.22,.33-.25,.36-.36,.36-.33,.51Z"/></g></g></svg>