<?xml version="1.0" encoding="UTF-8"?><svg id="_イヤー_2" xmlns="http://www.w3.org/2000/svg" viewBox="0 0 168.77 168.77"><defs><style>.cls-1{fill:none;stroke:#000;stroke-linecap:round;stroke-linejoin:round;stroke-width:2px;}</style></defs><g id="font"><path d="M84.39,1c45.98,0,83.39,37.41,83.39,83.39s-37.41,83.39-83.39,83.39S1,130.36,1,84.39,38.41,1,84.39,1m0-1C37.78,0,0,37.78,0,84.39s37.78,84.39,84.39,84.39,84.39-37.78,84.39-84.39S130.99,0,84.39,0h0Z"/><path class="cls-1" d="M76.39,93.89l-5.1,6.36c-.91,1.14-2.29,1.8-3.75,1.8h-1.91c-.7,0-1.27,.57-1.27,1.27v2.59c0,.7,.57,1.27,1.27,1.27h36.73c.7,0,1.27-.57,1.27-1.27v-2.59c0-.7-.57-1.27-1.27-1.27h-1.91c-1.46,0-2.84-.66-3.75-1.8l-5.07-6.32"/><path class="cls-1" d="M45.51,93.52c-.23,0-.41-.18-.41-.41V42.15c0-.23,.18-.41,.41-.41H122.48c.23,0,.41,.18,.41,.41v51.07c0,.17-.14,.31-.31,.31H45.51Z"/><path class="cls-1" d="M51.9,89.22c-.19,0-.34-.15-.34-.34V46.38c0-.19,.15-.34,.34-.34H116.09c.19,0,.34,.15,.34,.34v42.59c0,.14-.11,.26-.26,.26H51.9Z"/><rect class="cls-1" x="51.56" y="112.11" width="67.32" height="19.41"/><g><path d="M115.72,118.48l13.65-23.64c.43-.75,.17-1.72-.58-2.16l-1.24-.72c-.75-.43-1.72-.17-2.16,.58l-13.65,23.64,3.97,2.29Z"/><polygon points="115.01 119.7 110.45 123.03 111.04 117.41 115.01 119.7"/></g></g></svg>