<?xml version="1.0" encoding="UTF-8"?><svg id="_イヤー_2" xmlns="http://www.w3.org/2000/svg" viewBox="0 0 168.77 168.77"><defs><style>.cls-1{fill:none;stroke:#000;stroke-linecap:round;stroke-linejoin:round;stroke-width:1.99px;}.cls-2{font-family:YuGo-Medium-83pv-RKSJ-H, YuGothic;font-size:43.33px;letter-spacing:.2em;}</style></defs><g id="font"><path d="M84.39,1c45.98,0,83.39,37.41,83.39,83.39s-37.41,83.39-83.39,83.39S1,130.36,1,84.39,38.41,1,84.39,1m0-1C37.78,0,0,37.78,0,84.39s37.78,84.39,84.39,84.39,84.39-37.78,84.39-84.39S130.99,0,84.39,0h0Z"/><g><polyline class="cls-1" points="105.37 110.92 87.09 128.71 68.81 110.92"/><line class="cls-1" x1="87.09" y1="102.11" x2="87.09" y2="127.06"/><path d="M87.09,41.55c16.43,0,29.8,13.37,29.8,29.8s-13.37,29.8-29.8,29.8-29.8-13.37-29.8-29.8,13.37-29.8,29.8-29.8m0-1.81c-17.45,0-31.6,14.15-31.6,31.6s14.15,31.6,31.6,31.6,31.6-14.15,31.6-31.6-14.15-31.6-31.6-31.6h0Z"/><text class="cls-2" transform="translate(74.57 89.75)"><tspan x="0" y="0">¥</tspan></text></g></g></svg>