<?xml version="1.0" encoding="UTF-8"?><svg id="_イヤー_2" xmlns="http://www.w3.org/2000/svg" viewBox="0 0 33.18 33.18"><defs><style>.cls-1{fill:#fff;}</style></defs><g id="font"><path class="cls-1" d="M9.72,.12c-1.77,.08-2.97,.36-4.02,.78-1.09,.42-2.01,1-2.93,1.92-.92,.92-1.49,1.85-1.91,2.94C.44,6.81,.17,8.02,.09,9.78,.01,11.55,0,12.12,0,16.62c0,4.5,.03,5.07,.11,6.84,.08,1.76,.36,2.97,.78,4.02,.43,1.09,1,2.01,1.92,2.93,.92,.92,1.85,1.48,2.94,1.91,1.06,.41,2.26,.69,4.03,.76,1.77,.08,2.33,.1,6.84,.09,4.5,0,5.07-.03,6.84-.11,1.77-.08,2.97-.37,4.02-.78,1.09-.43,2.02-1,2.93-1.92,.92-.92,1.49-1.85,1.91-2.94,.41-1.06,.69-2.26,.76-4.03,.08-1.77,.1-2.34,.09-6.84,0-4.5-.03-5.07-.11-6.84s-.36-2.97-.78-4.03c-.43-1.09-1-2.01-1.92-2.93-.92-.92-1.85-1.49-2.94-1.91-1.06-.41-2.26-.69-4.03-.76C21.63,.01,21.06,0,16.56,0c-4.51,0-5.07,.03-6.84,.11m.19,29.99c-1.62-.07-2.5-.34-3.08-.56-.78-.3-1.33-.66-1.91-1.24-.58-.58-.94-1.13-1.24-1.91-.23-.59-.5-1.46-.58-3.08-.08-1.75-.1-2.27-.11-6.7s0-7.51,.08-9.26c.07-1.62,.34,.06,.56-.52,.3-.78,.66-1.33,1.24-1.91s1.13-.94,1.91-1.24c.58-.23,1.46-.5,3.08-.58,1.75-.08,2.27-.1,6.7-.11,4.43,0,4.95,0,6.7,.08,1.62,.07,2.5,.34,3.08,.56,.78,.3,1.33,.66,1.91,1.24s.94,1.13,1.24,1.91c.23,.58,.5,1.46,.58,3.08,.08,1.75,.1,2.27,.11,6.7,0,4.43,0,4.95-.08,6.7-.07,1.62-.34,2.5-.56,3.08-.3,.77-.66,1.33-1.24,1.91s-1.13,.94-1.91,1.24c-.58,.23-1.46,.5-3.08,.58-1.75,.08-2.27,.1-6.7,.11-4.43,0-4.95,0-6.7-.08M23.44,7.72c0,1.1,.89,1.99,1.99,1.99,1.1,0,1.99-.89,1.99-1.99,0-1.1-.89-1.99-1.99-1.99h0c-1.1,0-1.99,.89-1.99,1.99m-15.36,8.88c0,4.7,3.83,8.51,8.53,8.5s8.51-3.83,8.5-8.53-3.83-8.51-8.53-8.5c-4.7,0-8.51,3.83-8.5,8.53m2.99,0c0-3.05,2.46-5.53,5.52-5.54,3.05,0,5.53,2.46,5.54,5.52,0,3.05-2.46,5.53-5.52,5.54-3.05,0-5.53-2.46-5.54-5.52h0"/></g></svg>