<?xml version="1.0" encoding="UTF-8"?><svg id="_イヤー_2" xmlns="http://www.w3.org/2000/svg" viewBox="0 0 168.77 168.77"><defs><style>.cls-1{fill:none;stroke:#000;stroke-linecap:round;stroke-linejoin:round;stroke-width:2px;}</style></defs><g id="font"><path d="M84.39,1c45.98,0,83.39,37.41,83.39,83.39s-37.41,83.39-83.39,83.39S1,130.36,1,84.39,38.41,1,84.39,1m0-1C37.78,0,0,37.78,0,84.39s37.78,84.39,84.39,84.39,84.39-37.78,84.39-84.39S130.99,0,84.39,0h0Z"/><path class="cls-1" d="M117.36,120.85H52.22c-1.01,0-1.83-.82-1.83-1.83V49.75c0-1.01,.82-1.83,1.83-1.83H117.36c1.01,0,1.83,.82,1.83,1.83V119.02c0,1.01-.82,1.83-1.83,1.83Z"/><rect class="cls-1" x="54.78" y="58.13" width="60.02" height="15.9" rx="1.83" ry="1.83"/><rect class="cls-1" x="56.2" y="79.48" width="11.54" height="9.39" rx="1.74" ry="1.74"/><rect class="cls-1" x="70.77" y="79.48" width="11.54" height="9.39" rx="1.74" ry="1.74"/><rect class="cls-1" x="56.2" y="92.52" width="11.54" height="9.39" rx="1.74" ry="1.74"/><rect class="cls-1" x="70.77" y="92.52" width="11.54" height="9.39" rx="1.74" ry="1.74"/><rect class="cls-1" x="56.2" y="105.55" width="11.54" height="9.39" rx="1.74" ry="1.74"/><rect class="cls-1" x="70.77" y="105.55" width="11.54" height="9.39" rx="1.74" ry="1.74"/><rect class="cls-1" x="85.33" y="79.48" width="11.54" height="9.39" rx="1.74" ry="1.74"/><rect class="cls-1" x="85.33" y="92.52" width="11.54" height="9.39" rx="1.74" ry="1.74"/><rect class="cls-1" x="101.04" y="79.48" width="12.1" height="9.85" rx="1.83" ry="1.83"/><rect class="cls-1" x="101.04" y="92.76" width="12.1" height="21.94" rx="1.83" ry="1.83"/><rect class="cls-1" x="85.33" y="105.55" width="11.54" height="9.39" rx="1.74" ry="1.74"/><line class="cls-1" x1="94.83" y1="53.03" x2="113.69" y2="53.03"/></g></svg>