<?xml version="1.0" encoding="UTF-8"?><svg id="_イヤー_2" xmlns="http://www.w3.org/2000/svg" viewBox="0 0 170 70"><defs><style>.cls-1{fill:#fff;}.cls-2{fill:#231815;}</style></defs><g id="_イヤー_7"><rect class="cls-1" width="170" height="70"/><g><path class="cls-2" d="M65.16,55.55c0-.56,0-1.27,.02-1.95-.27,.36-.56,.72-.85,1.08-.12,.14-.19,.21-.27,.21-.06,0-.12-.09-.17-.27-.1-.49-.3-.97-.5-1.29,1.19-1.33,2.07-2.96,2.71-4.79,.12-.36,.2-.67,.24-1.05,.51,.12,.99,.24,1.41,.42,.16,.06,.22,.1,.22,.23,0,.1-.04,.17-.15,.25-.1,.1-.17,.24-.3,.63-.27,.75-.56,1.47-.9,2.16v7.62c0,1.47,.03,2.21,.03,2.28,0,.15-.02,.17-.17,.17h-1.2c-.15,0-.17-.02-.17-.17,0-.09,.03-.81,.03-2.28v-3.25Zm12.15-5.4c0,.17-.01,.18-.15,.18-.07,0-.36-.02-1.12-.03-.42,.85-.99,1.58-1.66,2.19,.96,.51,2.08,.89,3.37,1.11-.19,.27-.36,.57-.48,.96-.1,.31-.13,.42-.27,.42-.07,0-.18-.03-.33-.08-1.36-.4-2.52-.9-3.48-1.53-.9,.55-1.92,.99-3.06,1.33-.15,.04-.24,.07-.31,.07-.15,0-.19-.1-.31-.38-.15-.34-.31-.61-.51-.82,1.16-.27,2.19-.62,3.08-1.08-.46-.44-.87-.92-1.2-1.47-.21,.25-.45,.52-.7,.79-.17,.15-.26,.24-.33,.24-.09,0-.17-.09-.31-.27-.2-.24-.39-.4-.63-.55v5.53c0,1.32,.03,1.96,.03,2.05,0,.17-.02,.18-.17,.18h-1.15c-.15,0-.17-.02-.17-.18,0-.09,.03-.73,.03-2.05v-4.81c0-.9-.03-1.35-.1-1.94,.58,.02,.98,.05,1.48,.1,.14,.02,.25,.09,.25,.18,0,.1-.07,.21-.12,.33-.04,.1-.06,.24-.08,.52,.96-.92,1.54-1.8,1.98-2.79,.1-.24,.23-.57,.29-.91,.46,.09,.84,.18,1.32,.31,.1,.03,.18,.09,.18,.18s-.06,.17-.12,.23c-.08,.08-.17,.24-.29,.5l-.19,.39h3.33c1.26,0,1.68-.03,1.77-.03,.14,0,.15,.02,.15,.15v.96Zm-1.68,6.84c.23-.21,.38-.4,.54-.66,.4,.24,.82,.52,1.14,.79,.09,.08,.14,.14,.14,.21,0,.09-.06,.15-.17,.2-.12,.06-.29,.18-.48,.34-1.77,1.54-3.48,2.62-6.66,3.29-.15,.03-.29,.04-.33,.04-.13,0-.18-.08-.29-.3-.19-.42-.39-.68-.65-.95,3.21-.49,5.1-1.51,6.75-2.97Zm-1.62-2.32c.09,.06,.12,.1,.12,.18s-.06,.14-.17,.17c-.12,.03-.27,.1-.5,.25-.82,.58-1.86,1.14-3.12,1.53-.17,.04-.27,.07-.35,.07-.13,0-.17-.07-.27-.27-.16-.28-.39-.54-.61-.75,1.44-.38,2.53-.84,3.22-1.32,.24-.17,.42-.34,.56-.52,.39,.19,.78,.44,1.11,.66Zm-.03,1.08c.21-.17,.42-.4,.55-.6,.42,.22,.77,.45,1.11,.7,.1,.08,.12,.12,.12,.2s-.04,.15-.13,.18c-.14,.04-.3,.14-.54,.33-1.21,.98-2.53,1.67-4.42,2.23-.18,.06-.29,.09-.36,.09-.12,0-.17-.09-.27-.28-.17-.33-.41-.63-.63-.84,2.22-.5,3.39-1.12,4.57-2.01Zm-2.12-5.44c.38,.56,.83,1.04,1.35,1.46,.5-.4,.92-.88,1.26-1.46h-2.61Z"/><path class="cls-2" d="M84.54,49.85c-1.4,0-1.89,.03-1.98,.03-.15,0-.16-.01-.16-.17v-1.23c0-.15,.01-.17,.16-.17,.09,0,.58,.03,1.98,.03h8.15c1.39,0,1.89-.03,1.98-.03,.15,0,.17,.02,.17,.17v1.23c0,.15-.01,.17-.17,.17-.09,0-.58-.03-1.98-.03h-2.91v3.54h2.08c1.29,0,1.74-.03,1.83-.03,.13,0,.15,.02,.15,.17v1.21c0,.15-.02,.17-.15,.17-.09,0-.54-.03-1.83-.03h-2.08v4.02h3.51c1.33,0,1.79-.03,1.88-.03,.14,0,.15,.01,.15,.17v1.24c0,.15-.01,.17-.15,.17-.09,0-.54-.03-1.88-.03h-9.37c-1.32,0-1.77,.03-1.86,.03-.13,0-.15-.01-.15-.17v-1.24c0-.15,.02-.17,.15-.17,.09,0,.54,.03,1.86,.03h.23v-4.35c0-1.04-.02-1.58-.12-2.28,.57,.01,1.2,.04,1.73,.1,.17,.01,.25,.09,.25,.18,0,.14-.04,.21-.1,.33-.08,.18-.1,.56-.1,1.63v4.38h2.32v-9.04h-3.57Z"/><path class="cls-2" d="M101.98,51.07c-1.32,0-1.79,.03-1.88,.03-.15,0-.17-.01-.17-.18v-1.14c0-.15,.02-.17,.17-.17,.09,0,.55,.03,1.88,.03h1.77c-.26-.54-.47-.93-.84-1.48-.09-.14-.06-.17,.1-.24l1.02-.39c.21-.07,.23-.07,.31,.06,.35,.47,.62,.89,.87,1.44,.06,.14,.06,.15-.17,.24l-.94,.38h3.38c.34-.5,.64-.96,.91-1.46,.14-.27,.23-.5,.29-.75,.52,.12,1.08,.25,1.5,.41,.13,.06,.21,.1,.21,.21,0,.07-.06,.13-.14,.19-.1,.07-.18,.17-.4,.52-.17,.25-.38,.56-.61,.87h1.98c1.33,0,1.8-.03,1.89-.03,.15,0,.17,.02,.17,.17v1.14c0,.17-.02,.18-.17,.18-.09,0-.56-.03-1.89-.03h-9.24Zm4.33,6.52c0,.76,.03,1.56,.03,2.01,0,.57-.04,.98-.36,1.25-.23,.19-.6,.3-1.7,.31-.48,0-.48,.01-.55-.45-.08-.38-.18-.71-.35-.96,.41,.03,.62,.04,1,.04s.5-.09,.5-.39v-1.25h-2.4v1.05c0,1.23,.03,1.83,.03,1.91,0,.15-.02,.17-.17,.17h-1.2c-.15,0-.17-.02-.17-.17,0-.09,.03-.66,.03-1.95v-4.95c0-1.29-.03-1.89-.03-2,0-.13,.02-.15,.17-.15,.1,0,.46,.03,1.58,.03h1.89c1.11,0,1.47-.03,1.56-.03,.15,0,.17,.02,.17,.15,0,.09-.03,.78-.03,2.12v3.25Zm-3.82-4.15v1.15h2.4v-1.15h-2.4Zm2.4,3.52v-1.15h-2.4v1.15h2.4Zm2.85-2.37c0-.87-.02-1.42-.1-2.13,.54,.02,.99,.06,1.5,.12,.15,.01,.21,.07,.21,.17,0,.12-.06,.24-.09,.34-.06,.21-.06,.51-.06,1.48v1.77c0,1,.03,1.48,.03,1.57,0,.15-.02,.15-.17,.15h-1.19c-.15,0-.17,0-.17-.15,0-.1,.03-.57,.03-1.57v-1.75Zm4.42,2.22c0,1.06,.03,1.86,.03,2.61s-.13,1.11-.52,1.37c-.4,.25-.81,.33-2.16,.33-.47,0-.47,.01-.57-.47-.09-.42-.21-.75-.4-1.05,.52,.06,.94,.08,1.51,.08,.47,0,.65-.1,.65-.58v-5.17c0-.85-.03-1.5-.12-2.02,.55,.01,1.03,.04,1.54,.1,.15,.01,.24,.09,.24,.16,0,.12-.06,.21-.1,.32-.08,.18-.09,.49-.09,1.44v2.89Z"/></g><g><path class="cls-2" d="M20.42,15.25c1.4-.24,3.01-.45,4.59-.45,4.06,0,7.99,1.22,7.99,5.69,0,1.97-1.22,3.46-1.91,3.94,1.58,.45,3.67,2.3,3.67,5.34,0,.66-.09,1.31-.36,1.88-.75,3.13-3.91,4.65-9.27,4.65-1.43,0-2.98-.12-4.71-.33V15.25Zm4.05,8.02h2.83c.86-.27,1.7-1.16,1.7-2.39,0-2.06-1.64-2.59-3.13-2.59-.51,0-1.01,.06-1.4,.12v4.86Zm0,9.27c.54,.03,1.1,.09,1.64,.09,2.42,0,4.5-.86,4.5-3.16,0-1.31-.98-2.8-2.56-3.1h-3.58v6.17Z"/><path class="cls-2" d="M55.89,32.6v3.4h-12.4V15.07h12.08v3.4h-8.05v4.2h6.5v3.4h-6.5v6.53h8.38Z"/><path class="cls-2" d="M65.64,36V15.07h11.87v3.4h-7.84v4.2h6.26v3.4h-6.26v9.93h-4.02Z"/><path class="cls-2" d="M96.41,14.65c6.5,0,11.12,4.89,11.12,10.88s-4.62,10.88-11.12,10.88-11.09-4.89-11.09-10.88,4.53-10.88,11.09-10.88Zm0,18.1c3.55,0,6.8-2.77,6.8-7.22s-3.25-7.27-6.8-7.27-6.77,2.83-6.77,7.27,3.19,7.22,6.77,7.22Z"/><path class="cls-2" d="M127.02,28.13l5.63,7.87h-4.92l-4.41-6.47c-.92,.15-1.7,.18-2.74,.09v6.38h-4.02V15.25c8.91-1.73,13.71,1.49,13.71,6.83,0,2.33-1.28,4.8-3.25,6.05Zm-6.44-2.12c3.58,.51,5.55-1.46,5.55-3.88,0-2.27-1.82-4.14-5.55-3.52v7.39Z"/><path class="cls-2" d="M153.2,32.6v3.4h-12.4V15.07h12.08v3.4h-8.05v4.2h6.5v3.4h-6.5v6.53h8.38Z"/></g></g></svg>