<?xml version="1.0" encoding="UTF-8"?><svg id="_イヤー_2" xmlns="http://www.w3.org/2000/svg" viewBox="0 0 37.83 28.75"><defs><style>.cls-1{fill:#fff;}</style></defs><g id="font"><path class="cls-1" d="M37.73,4.09c-.17-.83-.55-1.59-1.08-2.22-.11-.14-.23-.26-.36-.38-.94-.92-2.27-1.49-3.71-1.49H5.25C3.8,0,2.48,.57,1.54,1.49c-.13,.12-.24,.25-.36,.38C.65,2.5,.27,3.26,.1,4.09c-.07,.32-.1,.65-.1,.99V23.67c0,.71,.16,1.4,.43,2.02,.26,.59,.64,1.13,1.1,1.57,.12,.11,.23,.22,.36,.32,.91,.73,2.08,1.17,3.35,1.17h27.33c1.27,0,2.45-.44,3.35-1.17,.13-.1,.24-.2,.36-.32,.46-.45,.84-.98,1.11-1.57h0c.28-.62,.43-1.3,.43-2.02V5.08c0-.34-.03-.67-.1-.99ZM3.44,3.33c.47-.45,1.1-.73,1.81-.73h27.33c.71,0,1.35,.27,1.81,.73,.08,.08,.16,.17,.23,.26l-14.33,12.09c-.4,.34-.88,.5-1.38,.5s-.98-.17-1.38-.5L3.21,3.58c.06-.09,.14-.17,.22-.26Zm-.75,20.34V6.27L13.05,15.03,2.69,23.78s0-.07,0-.11Zm29.9,2.48H5.25c-.46,0-.9-.12-1.27-.33l10.93-9.23,1.02,.86c.85,.72,1.92,1.08,2.98,1.08s2.13-.36,2.99-1.08l1.02-.86,10.93,9.23c-.37,.21-.81,.33-1.27,.33Zm2.56-2.48s0,.08,0,.11l-10.36-8.74,10.37-8.76V23.67Z"/></g></svg>