<?xml version="1.0" encoding="UTF-8"?><svg id="_イヤー_2" xmlns="http://www.w3.org/2000/svg" viewBox="0 0 123.84 62.36"><defs><style>.cls-1{fill:#ff2083;}</style></defs><g id="_イヤー_7"><g><path class="cls-1" d="M13.69,27.08l.04-.07,.07-.11,.65-.79,.14-.29,.11-.11,.04-.07,.11-.07,.43-.47,.14-.18v-.07l.04,.04,.11-.36-.04-.04-.18-.04h-.33l-.43,.11-1.05,.4-.25,.07-.18,.04-1.05,.65h-.04l-.29,.18-.25,.11-.25,.14-.83,.4-.83,.47-.33,.15-.54,.29-.18,.07-.43,.25-.22,.07-.65,.4-.22,.14-.22,.18-.33,.11-.33,.14-.87,.47-.07,.07-.36,.22h-.07v.04h-.33l-.43,.18h-.29c-.11,.07-.25,.11-.36,.14l-.14,.11-.72,.25-.14,.04-.54,.22-.07,.04-.11,.04h-.11l-.22-.04h-.04c-.58,.07-1.05-.04-1.19-.43-.14-.47,0-1.01,.25-1.59l.14-.43,.11-.04,.04-.14,.14-.22,.07-.14,.07-.04v.04l.07-.18,.25-.36,.4-.29,.07-.07,.29-.47,.15-.18,.29-.22,.43-.36,1.63-1.45v-.04h.04l.47-.4,.11-.11,.61-.51,.29-.18,.94-.69,.04-.04,.43-.47,.18-.18,.14-.25,.07-.04,.25,.04,.11-.07,.25-.07,.14-.04,.18-.04,.14-.11v-.07l.29-.11,1.16-.58,.22-.18,.14-.07,.29-.07,.07,.04,.07-.04,.33-.11h.11l.18-.11,.25-.04,.22-.07,.25-.07,.14-.04,.36,.11,.22-.04h.22l.14,.04h.07v.04h.15l.11,.07,.04,.07,.14,.04,.07,.18v.33l-.11,.07c-.04,.11-.14,.18-.4,.43-.11,.07-.22,.04-.25,0l-.4,.11-.25,.04h-.65l-.58-.07v.04h-.14v-.04h-.07l-.25,.04h-.25l-.51,.22-.58,.25-.83,.36-.58,.25c-.22,.11-.4,.25-.61,.4t-.04,0l-.33,.25-.04,.04-.07,.04-1.63,1.19-.14,.14-.33,.36-.25,.25-.25,.14-.33,.18-.11,.11-.33,.36-.07,.07-.07,.11-.43,.54-.11,.07-.07,.07-.11,.07-.07,.14-.11,.14h-.07l-.07,.18-.14,.18-.07,.15-.18,.18-.18,.22-.36,.43v.07l.04,.22-.04,.07v.07l-.07,.07-.14,.11-.11,.14-.18,.22-.14,.22v.07l-.04,.07v.22l.07,.11,.11,.18,.11,.07,.76-.29,.33-.07,.51-.18h.04l.18-.04c.47-.18,.94-.4,1.41-.61l.18-.11,.25-.14,.18-.14h.29c.4-.18,.83-.36,1.23-.58l.18-.14,.25-.11v-.04l.07-.04,.11-.11,.14-.04,.54-.25,.29-.14,.25-.14,.98-.51,.25-.18,1.01-.47,.22-.07,.65-.33,.33-.25,.65-.33,.18-.14,.29-.18,.18-.14,.43-.29,.47-.29,1.12-.25h.43l.33,.07,.25,.14,.14,.11c.14,.04,.22,.11,.29,.25v.04l.07,.04v.14l-.04,.11h.07l-.04,.07-.04-.04-.07,.07-.07,.11-.07,.14-.22,.18c-.04,.07-.11,.15-.18,.22l-.25,.4-.22,.18-.11,.04-.43,.51-.07,.07v.04l-.07,.04-.22,.29-.07,.11-.07,.14-.29,.4c-.07,.07-.11,.18-.14,.25l-.11,.29-.04,.04c-.07,.14-.11,.29-.07,.36,0,.11-.04,.04,.11,.07,.04,0,.07,.04,.11,.04l.18-.04h.25l.07-.04h.25l.18-.04,.07,.04c.25-.04,.47-.11,.8-.18l.29-.07,.25-.11h.22l1.26-.36,.11-.07,.4-.11v.04l.47-.15,.29-.14,.14-.04,.14-.11,1.19-.33v-.07l.11,.07,.33-.11,.11-.11,1.74-.51h.18l.9-.29s.07,0,.11,.04h.07l.04,.25-.14,.11h-.29l-.61,.14-.43,.22h-.14l-.58,.14-.29,.11-.83,.4-.62,.25-.69,.22-.79,.29-.14,.07-.36,.14-.18,.11-.29,.11h-.04l-.25,.11-.29,.18-.11,.04-.07,.07-.94,.33v.07l-.04-.04-.29,.11-.04,.07-.61,.22-.54,.18-.18,.15-.04,.04-.04-.07-.11,.04-.07,.07-.07-.04-.04,.04-.25,.07h-.4l-.07-.04h-.25l-.18-.07-.14-.07-.11-.15,.04-.18-.04-.14c-.04-.14-.04-.25,.04-.47l.11-.25,.04-.14,.25-.33,.11-.18,.29-.36,.11-.14Z"/><path class="cls-1" d="M37.62,25.67l-.07,.29-.07,.14-.04,.11-.22,.07c-.18,.33-.36,.65-.58,.98l-.04,.07-.04,.22-.22,.22s-.04,.04-.04,.04c.18,.25,.36,.51,.51,.76l.11,.07,.14,.22,.11,.11,.22,.07,.04,.07v.29l.07,.25,.04,.36,.11,.25,.07,.11-.04,.04c.18,.51,.25,1.01,.36,1.55v.07l.14,.33-.07,.25,.18,.61,.04,.43-.11,.54,.04,.58v.25l-.07,.36-.11,.43-.04,.25-.04,.29-.22,.61-.04,.07c-.04,.18-.07,.4-.14,.61l.07,.36,.07,.07-.07,.07-.22,.18-.04,.29-.04,.33v.14l-.04,.11-.11,.11-.4,.51c-.11,.33-.25,.61-.4,.94l.11,.18-.07,.18-.29,.22-.22,.43,.04,.07-.07,.04-.18,.33-.04,.22-.07,.11-.07,.33-.18,.33-.04,.33-.14,.43-.11,.14-.36,.4-.11,.22-.22,.25-.29,.29-.11,.14-.29,.43-.25,.51-.25,.25-.07,.14-.29,.43-.11,.22-.43,.65-.65,.65c-1.05,1.45-2.17,2.86-3.33,4.23l-.07,.14-.36,.4-.25,.51-.18,.22-.22,.25-.51,.51-.18,.22-.29,.22-.83,1.01-.04,.04v.07l-.11,.04-1.19,1.37c-.04,.07-.11,.14-.18,.22v.07l.07,.14-.18-.11-.04,.04v.07l-.18,.22h-.04l-.36,.54-.9,1.08-.33,.43-1.08,.76-1.05,.65,.14,.07-.07,.14v.11l-.11-.04-.04-.11-.29,.11-.07-.04-.04,.04v-.04h-.18l-.29-.33-.14-.43c.07-.18,.14-.36,.18-.54l-.04-.33v.04l-.07-.04v-.22l-.07-.33,.04-.33v-.11l.04-.14v-.11l-.07-.07,.04-.04,.04,.04,.07-.25,.04-.07,.07-.04,.04-.14,.11-.04,.04-.04,.18-.36-.04-.29v-.29l.11-.25,.25-.4,.22-.4,.14-.43c.07-.43,.22-.83,.36-1.26v-.07l.07-.22h.04c.07-.25,.22-.47,.33-.72,.58-.98,.98-1.99,1.37-2.96l.11-.72v-.18l.33-.25,.18-.4v-.11l.07-.07,.36-.65c.18-.33,.33-.65,.47-.98v-.07l.07-.14,.04-.14,.11-.07,.29-.61,.11-.11,.58-1.08v-.11l.14-.22,.04-.14,.18-.33,.47-.9,.14-.14,.22-.4,.51-.94,.11-.29,.33-.47,.76-1.34,.18-.33,.18-.25,.07-.14c.07-.11,.11-.22,.18-.29l.11-.33,.98-1.59,.18-.54,.62-.76,.98-1.59,.83-1.37,.4-.83,.22-.33,.25-.22,1.45-2.35,.22-.43h.07l.14-.25v-.07l.11-.11,.29-.47c-.07-.07-.11-.14-.14-.22l-.22-.33-.18-.14v-.14l-.11-.07-.11-.18-.11-.07-.25-.33-.51-.54c-.69-.54-2.17-.29-2.64-1.16l-.14-.11v-.18l.07-.14,.11-.18h.04l.22-.14h-.04l.04-.07,.14-.07,.22-.14,.25-.07h.04l.04-.04,.11-.04,.07-.04v-.07h.04v.04h.22l.04,.04c.07,0,.14,0,.22-.04,.69-.14,.98-.14,1.34-.14l.33-.14,1.45-.33,.54-.11,.87-.14,.4-.11,.29-.07,.29-.11,.25-.22h.07l.14,.11h.14l.25-.04s0-.04,.04-.07l.65-1.37,.4-.4,.04-.22,.33-.25,.29-.4,1.55-2.78c.07-.22,.22-.43,.36-.65l-.04-.07,.04-.18,.25-.14,.43-.58,.29-.4,.15-.14,.36-.4,.25-.33c.33-.76,.9-1.45,1.34-2.13,.25-.51,.65-.9,1.01-1.3l.04-.11,.36-.36,.11-.18c.33-.54,.76-1.05,1.16-1.59l.07-.14,.87-1.01,.22-.4,.9-1.16,.51-.51v-.04l.07-.22,.18-.04,.07-.14,.51-.61,.25-.43,.22-.47,.14-.25,.18-.22h.18l.11-.18-.07-.04v-.11l.14-.25h.18v-.14l.07-.07,.07-.14v-.07l.14-.25v-.07l.07,.07,.14-.07,.07-.11h.07l.04-.04,.33-.25,.33-.07,.18-.11,.04,.07,.07-.07,.36-.22,.18-.18,.07-.11v-.11h.11l.04,.11,.33-.11h.25l.29,.33,.22,.43-.25,.79-1.12,.33-.04,.11-.29,.33-.25,.43-.18,.33-.87,.22-.43,.47,.11,.15-.22-.07-.07,.04-.62,1.01c-1.12,1.26-2.71,3.22-3.76,4.55-.62,1.08-1.23,1.45-1.92,2.49-1.37,1.66-2.28,3.62-3.76,5.21l-.29,.43c-.22,.43-.47,.83-.76,1.16l-.14,.36-.51,.58-.83,1.48-.04,.18v.11l-.11,.07-.07,.04-.29,.51h.07l.22-.04c1.27-.33,2.46-.65,3.18-.72h.43c.65-.07,1.55-.14,2.57-.22,.29-.04,.61-.11,.94-.14,.29-.04,.58-.04,.87-.07,.4,.04,1.41-.07,2.13-.14,.29-.04,1.19,.04,1.19,.11l.07,.04,.07,.18-.14,.07h-1.19l-1.23,.07-.22,.07h-.04c-.47-.04-.87,.04-1.27,.14v-.04c-.33,.04-.58,.04-.79,.11l-.11,.04h-.4c-.51,.04-2.02,.22-2.49,.25l-.15,.22-.07-.07h-.25l-.11-.04-.14,.14h-.07c-.69,.11-1.48,.29-2.17,.51l-.61,.22-.69,.22h-.18c-.14,.14-.25,.29-.33,.4l-1.45,2.31Zm-1.84,14.89l.25-.36,.22-.36,.04-.11,.04-.04,.22-.54v-.07l.33-.94,.11-.43,.14-.61,.07-.4,.04-.54,.14-.47,.07-.36,.18-.65c.04-.8,.04-1.63,0-2.46l-.04-.04-.04-.33-.04-.51-.14-.4-.04-.14-.29-.69-.14-.22-.11-.11-.14-.29c-.29-.36-.58-.62-.83-.94h-.04l-.33,.54-.04,.11-.04,.04-.14,.18v.25l-.33,.33-.18,.29-.25,.43-.11,.11-.98,1.55c-.51,.79-1.23,1.26-1.74,2.1-.36,.58-.72,1.19-1.05,1.81l-.11,.25-.18,.25s-.07,.07-.07,.11l-.14,.4-.29,.51-.87,1.48-.4,.98-.4,.51c-.07,.15-.14,.33-.25,.47v.07l-.14,.25-.76,1.45-.04,.33-.29,.29-.22,.51-.18,.4-.51,.94-.62,1.23-.18,.51-.33,.47c-.22,.36-.4,.76-.61,1.16l-1.41,2.67-.36,.83-.22,.29c-.98,1.92-1.23,4.59-1.74,6.61v.04l.07,.18,.04,.43,.04,.11,.65-.43,2.06-1.99,.18-.11,.33-.29,1.05-1.45,.43-.47,.33-.4,1.34-1.52,1.19-1.34,.54-.58,.76-1.05,.36-.29,.72-.87,.22-.29v-.04l.04-.04,1.01-1.27,.54-1.08,.43-.29,.72-1.16v-.11l.07-.11,.11-.07,.04-.14h.04l.04-.04v-.07l.14-.18c.25-.43,.51-.9,.8-1.34l.36-.65v-.07l.07-.04v-.11l.18-.33,.04-.07,.43-.94,.11-.25Zm1.16-17.1l-.72,.11-.4,.22-.33,.07-.22,.11-.47,.11-.36,.14-.25,.07-.36,.07,.11,.22c.76,.29-.14,.43,.43,.8v.04l.11-.04v.07c.29,.22,.47,.4,.62,.58l.07,.11,.22,.11,.22,.22,.07,.11,.11,.36,.14,.15v.04l.69-1.08,.14-.4,.43-.54,1.05-1.55,.18-.33,.07-.14-.22,.14-.18-.04c-.11,.07-.18,.07-.25,.07l-.9,.22Z"/><path class="cls-1" d="M68.74,9.22h.58l.18-.18,.98-1.34,.11-.11,.43-.58,.18-.18,.25-.33,.11-.07,.4-.54v-.07l.15-.14,.07-.14,.07-.11-.11,.07h-.04v-.07l.07-.11,.14-.04v.11l.14-.18,.18-.18,.18-.25,.04-.11,.14-.22,.51-.33,.29-.33,.14-.11,.11-.04,.04-.07v-.04l.04-.04v.04l.22-.47,.25-.25,.51-.04,.29,.51,.04,.51-.51,.33-.36,.33-.25,.4-.18,.25-.04,.22-1.16,1.08-.36,.25-1.45,1.55-.79,.98,.43-.04,.14-.11h.11l.11,.11,.9-.07v-.07h2.42l1.05-.11h1.08l.11,.11h.29v.11l.94,.07,.33-.07,.51,.11,.62-.07h.25l.33,.04,.43,.11,.25,.04,.29,.04,.9,.25h.07l.29,.07h.47l.29,.14,.8,.11,.14,.04,.22,.18c.14,.04,.29,.07,.43,.14l.04-.04,.04,.04,.94,.36,.07-.04,.04,.07h.04v.04l.54,.25h.07l.11,.07s.07,.07,.14,.07l.18,.04,.43,.22,.11,.18,.33,.25h.14l.14,.14,.04,.07c.22,.14,.4,.33,.58,.47,0,.04,.04,.04,.04,.07l.11,.04,.25,.36v.04l.07,.07,.22,.07,.07,.07-.04,.29,.11,.25,.18,.65,.04,.29s.04,.07,.07,.11c0,.11,0,.18-.04,.22l.04,.04-.11,.22-.18-.22-.04-.11c-.04-.07-.04-.14-.04-.22l-.25-.51-.25-.65-.07-.14-.04-.04-.22-.33-.25-.29s-.04-.04-.04-.07l-.4-.36-.14-.07-.43-.33-.04-.04c-.07-.04-.18-.07-.25-.14l-.11-.04-.07-.04-.29-.18-.29-.11-.22-.07-.07-.11-.04-.04h-.07l-.11-.07-.58-.22-.69-.07-.25-.07-.43-.22-.54-.14c-.58-.14-1.19-.22-1.81-.33l-.07,.04-.61-.11-.29-.04h-.36l-.25,.04-.65-.11-.33-.04-.22,.04-.11-.04-.43-.07c-.29-.04-.61-.04-.87-.04l-.14,.04-.11-.04c-.22,0-.4-.04-.58-.04-1.16,0-2.31,0-3.47,.04l-.25,.04-.25,.11v.11h-.14l-.4,.22h-.14v.11h-.11l-.54,.22h-1.77c-.22,.29-.47,.54-.65,.8l-.11,.22-.22,.18c-.22,.25-.43,.51-.61,.76l-.04,.11-.51,.58-.54,.83-.33,.4-.61,.69-.07,.07-1.16,1.55-.25,.33-.72,.9-.11,.22-.18,.18-.22,.33-.25,.43-.14,.18-.25,.29-.29,.29-.22,.29-.04,.04-.11,.14-.11,.25-.54,.76-.14,.43-1.7,2.35-.58,.65-.76,.79-.18,.18-.36,.4-.22,.36-.07,.25-.36,.51-.29,.65-.25,.36-.51,.65-.22,.76v.22l-.04,.18-.29,.47-.04,.47-.14,.4-.07,.18,.07,.15,.18,.07,.22-.04,.65-.14,.22-.07,.07-.11,.61-.14,.33-.14,.29-.11,.22-.14,.29-.04,.33-.11,.18-.11h.14l.11-.04,.94-.47,.69-.29v-.04h.07l.11-.18h.11l.22-.07h.11l.11-.11h.11l1.05-.47,.36-.22,.14-.04,1.7-.79,.36-.22,.25-.11,.43-.18,.58-.29h.04l.18-.22,.4-.22,.43-.14,.51-.18,.98-.51v-.04h.04l.18-.11,.14-.11,.51-.29h.11v-.07l.22-.04,.18-.14,.11-.11,.18,.04,.07,.18,.04,.07-.04,.11-.11,.11-.29,.04-.11,.11-.98,.65-.29,.14-.4,.25-.54,.29-.4,.18-.36,.11-.51,.25-.25,.14-.11,.11-.4,.22-.47,.29-.61,.25-.18,.07-.33,.29-.33,.11-.36,.14-.14,.04-.22,.18-.18,.11-.18,.04-.33,.25-.11,.07-.29,.04-.25-.04-.22,.11-.69,.36-.36,.18-.51,.22h-.11l-.43,.22-.43,.4-.36,.22-.18,.04h-.04l.04,.07-.04,.11-.15,.04h-.22l.07-.14-.14,.04-.33,.22-.11,.11-1.01,.36-1.34,.4-.47-.04-.11,.04-.25-.07-.14-.04-.25-.11-.11-.22-.07-.33c-.04-.14,.04-.43,.04-.58,.04-.29,.14-.65,.33-1.08v-.07l.07-.25,.11-.22,.07-.07v-.18l.07-.11,.18-.22,.07-.11,.22-.29,.36-.65,.07-.11,.07-.29,.07-.22,.11-.14,.22-.25,.22-.33,.11-.25,.14-.22,.18-.14,.04-.07,.25-.22,.33-.29,.18-.25,.04-.14,.07-.18,.25-.14,.47-.65,.04-.11,.11-.11c.15-.18,.29-.4,.47-.58l.22-.33,.29-.4,.22-.33,.22-.29,.11-.07,.07-.11,.14-.18,.04-.04c.07-.11,.18-.18,.22-.29l.04-.07,.11-.14,.07-.07,.11-.14v-.07l.15-.14v-.18l.58-.76,.14-.07s.04,0,.04-.04l.04-.18,.4-.51,.11-.07,.14-.29,.29-.25,1.34-1.92,.18-.14,.58-.76,.07-.07c.14-.15,.29-.36,.43-.58l.04-.04,.07-.11h.04l.58-.76v-.18l.58-.65,.11-.07,.18-.22,.04-.14,.83-1.12,.22-.11,.25-.25v-.04l.14-.14v-.07l.11-.14,.11-.04,.07-.11v-.04l.07-.14,.04-.11,.33-.43h-.07l-.22,.11-.72,.07-.43,.07-1.08,.07-1.12,.14-.29,.04-.33,.04-.94,.14-.29,.07-1.84,.54-.33,.18-.14,.07-.43,.07-.51-.04-.65,.47-.29,.11-.72,.14-.83-.18-.29-.33-.04-.36,.07-.25h.04c0-.07,.04-.14,.11-.22h.07l-.04-.07v-.07l.07,.14c.61-.29,1.34-.51,2.21-.69l.58-.25,.58-.04,.22,.07,1.48-.18,.07-.04h.04l.98-.11,.04-.04h.07l.65-.07,.11,.04h.22l.04-.04h.18l.9-.18,.07-.04,.18-.07h.22l.61-.07,.11-.04,.25,.04c.18-.04,.36-.07,.54-.07l.04-.04h.47l.51-.04Z"/><path class="cls-1" d="M78.51,26.97v.18l-.18,.18-.11,.14s-.04,.04-.04,.07v.11l-.14,.22-.04,.9s-.07,.54,.07,.72c.22,.25,.11,.25,1.01,.54l.61,.14h.47l.54-.07,2.64-.58,.51-.22,1.41-.47,.29-.18,.14-.07h.07l2.17-.9h.14l.25-.14,.33-.07,1.19-.43,.14-.04c1.3-.54,1.81-.87,3.07-1.45l.8-.29,.04-.07,.22-.11,.65-.22,.69-.29v-.07h.11l.43-.22,.04-.07,1.95-1.19,.18-.04c.25-.14,.51-.33,.8-.54,.07-.07,.18-.04,.22,.04v-.04l.14-.11,.14,.04,.11,.33-.18,.07-.33,.11-.18,.07-.83,.58-.18,.25h-.18l-.14,.07c-.33,.22-.69,.4-1.01,.58l-.04,.04-.25,.14-.15,.11h-.11l-1.16,.58-.04,.07-.14,.04-.29,.14-.07,.04-.51,.33-1.37,.58c-.43,.22-.87,.47-1.3,.65l-.11,.11-1.81,.87-.14,.11-.07-.11-.4,.25-.43,.07-.29,.14h-.04c-.47,.22-.94,.4-1.41,.58l-.54,.29-1.12,.54-.29,.07-.43,.07-.61,.18-.36,.04-.14,.07-.14,.11-.47,.11h-.07c-.43,.14-.94,.25-1.45,.33l-.11,.11-.18,.04h.04l-.72,.14-.22-.07-.4,.14-.87-.14-.8-.4-.36-.51-.18-.47-.11-.51v-.61l.04-.07-.04-.07v-.25l.25-.9,.25-.43,.29-.65,.22-.36,.07-.07,.11-.29,.22-.18,.11-.25,.22-.33,.11-.11,.4-.18,.14-.18,.25-.11,.29-.22,.07-.04,.36-.33,.33-.25,.25-.36,.14-.14,.18-.22,.14-.11,.22-.07,.07-.11,.18-.18,.29-.11,.18-.07c.8-.58,1.63-1.19,2.5-1.7l.07-.07,.36-.25,.47-.18s.07,0,.07-.04l.43-.29,.25-.14,.11-.04,.51-.07c.4-.14,.79-.29,1.19-.4l.33-.18h.36l.22-.07,.11,.07c.29,0,.58,0,.83,.04l.04-.04,.11-.04,.07,.04,.11-.04,.04-.04,.22,.07v-.04h.04l-.04,.07,.11,.07h.11l.04,.07h.04l.22,.11,.04,.04c.18,.14,.33,.25,.36,.43l.11,.04-.04,.07h.04l-.04,.04v.18l.04,.14-.07,.25-.07,.11v.22l-.14,.54-.29,.47-.36,.36-.4,.25-.33,.22-1.27,.65-.18,.14-.25,.07c-.83,.58-1.74,1.08-2.64,1.55l-.04,.07-1.05,.51-.47,.33-.94,.4-.69,.25-.98,.18-.58,.04h-.25l-.22-.11-.07-.18,.07-.11,.25-.51,.51-.47,.47-.18h.29l.25,.07,.29,.07h.47l.43-.07,.47-.18h.14l.07-.11,1.05-.36,.98-.47,.47-.25,.18-.22,.47-.18,.07-.14,.54-.18,.14-.14,.47-.36,1.63-1.37,.14-.18,.07-.25,.07-.11,.18-.54-.04-.04-.04-.07-.07-.18-.18-.22-.25-.11-.25-.07h-.4l-.25,.04-.14-.04c-.98,.22-2.02,.76-2.64,1.05l-.43,.22-.11,.11-.18,.14-.14-.04s-.04,.04-.07,.04v.07l-.22,.07-.07,.07h-.07l-.8,.43-.4,.33-.25,.25-.36,.11-.14,.07c-.33,.22-.61,.47-.94,.72l-.18,.22-.47,.43-.25,.25-.4,.36-.51,.51-.51,.58-.11,.11-.22,.33-.25,.36-.36,.36-.33,.51Z"/><path class="cls-1" d="M105.91,27.04l-.07,.14,.29-.25,.51-.36,.15-.11,.07-.04h.07v-.04l.29-.11-.14-.14h.22l.65-.61h.11l.58-.58,.65-.4,.61-.47,.07-.07h.04l.69-.54,.04-.04,1.01-.72v.04l.65-.43,.18-.18,.14-.04,.33-.22,.07-.07h.04l.72-.43,.29-.29,.22-.14,.54-.22,.4-.36,.4-.22,.76-.25,.33-.14c.25-.14,.69-.36,1.19-.58l.22-.18,.65-.25,.65-.22,.11-.07,.33-.18,.4-.14,.25-.11,.47-.04c.61-.18,1.19-.29,1.66-.25l.22-.07,.14,.15c.18,.07,.33,.18,.43,.29,.04,.04,.07,.07,.07,.14l.25,.29-.07,.94-.43,.87-.43,.14h-.4l-.22-.25v-.36l-.18,.14v-.18l.07-.04,.04-.18-.04-.25-.07-.47-.14-.18-.54,.07-.51,.22-.18,.04-.29-.04-.4,.18-.22,.04-1.45,.29c-.69,.29-1.27,.58-1.48,.69l-.22,.11-.18,.18-1.45,.76-.54,.33-.22,.22-.69,.36-.18,.11-.33,.25-.54,.36-.22,.25-1.05,.69-1.55,1.3-.22,.33-.25,.18-.47,.51-.43,.4-.14,.07-.29,.18-.25,.25-.04,.07-.29,.25-.33,.36-.18,.18-.15,.11-.36,.36-.14,.25-.14,.11-.14,.18-.36,.33-.61,.62-.18,.29-.14,.18-.18,.33-.07,.22-.04,.07-.07,.18-.22,.22-.58,.43-.36,.25-.33-.07-.18-.25v-.04c-.07-.11-.11-.22-.07-.36v-.14l.07-.07,.11-.43-.07,.07-.04-.14,.11-.25,.14-.43,.25-.36,.04-.07v-.07l.14-.11,.11-.18v-.07l.33-.25h.07l.11-.07,.43-.61,.25-.36,.11-.04,.18-.36,.22-.54,.25-.22,.07-.22,.4-.51,.11-.07,.47-.72v-.14l.62-.76,.36-.61,.14-.22,.18-.33,.04-.11,.07-.07,.25-.36v-.11l.22-.36,.22-.04,.11,.07,.22-.25,.11-.25,.04-.18v-.11l-.14-.07,.11-.11-.04,.07,.11-.14-.04-.04-.14,.18c-.18,.18-.33,0-.33-.18l.07-.07v-.07l.04-.11,.11-.18,.04-.07-.07-.11-.04,.04-.18-.07v-.11l.07-.07,.14-.04h-.07l.07-.04h-.07l-.04-.14,.14-.22,.18,.11,.11-.18v-.14l.04-.11-.07-.04,.18-.04v-.18l.07-.04h.07l.14-.14h.18l.25,.04,.18,.04,.14-.07v-.07l.14-.11,.14,.04h.11l.07,.07-.04,.04-.18,.07c.29,.11,.43,.29,.47,.47l.04,.04-.04,.11c0,.43-.36,.94-.76,1.41l.04,.07-.4,.51-.22,.04-.33,.36-.14,.18-.11,.25h-.04c-.18,.25-.36,.54-.58,.76,0,.04-.04,0-.04,0l-.22,.33-.07,.22-.14,.25-.33,.54-.22,.25-.07,.15-.22,.36-.43,.69-.25,.54-.22,.36-.18,.18-.07,.07Z"/></g></g></svg>