<?xml version="1.0" encoding="UTF-8"?><svg id="_イヤー_2" xmlns="http://www.w3.org/2000/svg" viewBox="0 0 252.31 61.85"><g id="font"><g><path d="M9.56,1.82h-2.49V10.2h-1.92V1.82H2.65V.2h6.91V1.82Z"/><path d="M18.19,0c3.11,0,5.32,2.34,5.32,5.2s-2.21,5.2-5.32,5.2-5.3-2.34-5.3-5.2S15.06,0,18.19,0Zm0,8.65c1.7,0,3.25-1.33,3.25-3.45s-1.55-3.48-3.25-3.48-3.23,1.35-3.23,3.48,1.52,3.45,3.23,3.45Z"/><path d="M27.82,.2h1.94V4.33L33.18,.2h2.22l-3.76,4.65,4.13,5.36h-2.45l-3.56-4.72v4.72h-1.94V.2Z"/><path d="M47.62,.2l-3.45,5.49v4.52h-1.94V5.69L38.78,.2h2.27l2.19,3.45L45.44,.2h2.18Z"/><path d="M55.46,0c3.11,0,5.32,2.34,5.32,5.2s-2.21,5.2-5.32,5.2-5.3-2.34-5.3-5.2,2.17-5.2,5.3-5.2Zm0,8.65c1.7,0,3.25-1.33,3.25-3.45s-1.55-3.48-3.25-3.48-3.23,1.35-3.23,3.48,1.52,3.45,3.23,3.45Z"/><path d="M73.36,7.48v2.72h-1.92V.29c4.02-.84,6.58,.83,6.58,3.41,0,2.39-2.1,3.85-4.66,3.79Zm0-1.71c1.84,.11,2.68-.9,2.68-2.08,0-1.04-.87-2.08-2.68-1.82v3.91Z"/><path d="M87.74,5.46h-3.52v4.75h-1.92V.2h1.92V3.83h3.52V.2h1.92V10.2h-1.92V5.46Z"/><path d="M99.29,0c3.11,0,5.32,2.34,5.32,5.2s-2.21,5.2-5.32,5.2-5.3-2.34-5.3-5.2,2.17-5.2,5.3-5.2Zm0,8.65c1.7,0,3.25-1.33,3.25-3.45s-1.55-3.48-3.25-3.48-3.23,1.35-3.23,3.48,1.52,3.45,3.23,3.45Z"/><path d="M114.83,1.82h-2.49V10.2h-1.92V1.82h-2.49V.2h6.91V1.82Z"/><path d="M123.47,0c3.11,0,5.32,2.34,5.32,5.2s-2.21,5.2-5.32,5.2-5.3-2.34-5.3-5.2,2.17-5.2,5.3-5.2Zm0,8.65c1.7,0,3.25-1.33,3.25-3.45s-1.55-3.48-3.25-3.48-3.23,1.35-3.23,3.48,1.52,3.45,3.23,3.45Z"/><path d="M144.44,6.44l2.69,3.76h-2.35l-2.11-3.09c-.44,.07-.81,.09-1.31,.04v3.05h-1.92V.29c4.26-.83,6.56,.71,6.56,3.26,0,1.11-.61,2.29-1.55,2.89Zm-3.08-1.01c1.71,.24,2.65-.7,2.65-1.85,0-1.08-.87-1.98-2.65-1.68v3.53Z"/><path d="M156.95,8.58v1.62h-5.93V.2h5.77V1.82h-3.85V3.83h3.11v1.62h-3.11v3.12h4Z"/><path d="M167.91,1.82h-2.49V10.2h-1.92V1.82h-2.49V.2h6.91V1.82Z"/><path d="M176.54,0c3.11,0,5.32,2.34,5.32,5.2s-2.21,5.2-5.32,5.2-5.3-2.34-5.3-5.2,2.17-5.2,5.3-5.2Zm0,8.65c1.7,0,3.25-1.33,3.25-3.45s-1.55-3.48-3.25-3.48-3.23,1.35-3.23,3.48,1.52,3.45,3.23,3.45Z"/><path d="M186.01,.2h1.92V6.6c0,1.21,.84,2.11,1.92,2.11s1.94-.9,1.94-2.11V.2h1.94V6.68c0,1.97-1.31,3.72-3.89,3.72s-3.83-1.75-3.83-3.72V.2Z"/><path d="M207.1,8.86c-.7,.73-1.78,1.54-3.98,1.54-2.95,0-5.23-2.24-5.23-5.23,0-3.15,2.54-5.17,5.32-5.17,1.95,0,3.24,.93,3.86,1.5l-1.17,1.4c-.41-.41-1.34-1.17-2.67-1.17-1.87,0-3.28,1.54-3.28,3.45s1.3,3.48,3.35,3.48c1.14,0,2.11-.56,2.65-1.07l1.14,1.28Z"/><path d="M216.76,5.46h-3.52v4.75h-1.92V.2h1.92V3.83h3.52V.2h1.92V10.2h-1.92V5.46Z"/><path d="M223.67,.2h1.92V10.2h-1.92V.2Z"/><path d="M238.19,.2V10.2h-1.9V6.17l-3.85-2.59v6.63h-1.87V.19l.26-.09,5.46,3.79V.2h1.9Z"/><path d="M248.69,5.22h3.42v3.48c-1.31,1.34-2.68,1.71-4.15,1.71-3.31,0-5.46-2.31-5.46-5.23s2.49-5.17,5.27-5.17c2.02,0,3.19,.85,3.9,1.51-.38,.46-.8,.9-1.2,1.35-.46-.44-1.27-1.14-2.62-1.14-1.82,0-3.28,1.51-3.28,3.41,0,2.12,1.4,3.55,3.46,3.55,.8,0,1.75-.34,2.19-.71v-1.14h-1.55v-1.61Z"/></g><g><path d="M6.48,51.91c-4.31,0-5.77,.09-6.04,.09-.44,0-.44-.04-.44-.49v-3.37c0-.44,0-.49,.44-.49,.27,0,1.73,.09,6.04,.09H26.19l.4-3.51H11.76c-.13,.27-.22,.53-.31,.8-.18,.49-.27,.53-.89,.49l-3.37-.35c-.67-.09-.8-.22-.62-.62,2-4.93,3.33-9.45,4.08-13.05,.22-1.02,.4-2.31,.44-3.24,1.69,.18,2.93,.36,4.53,.67,.58,.13,.89,.35,.89,.62,0,.31-.18,.49-.4,.71-.27,.27-.44,.89-.62,1.55l-.13,.44h11.14c3.91,0,5.15-.09,5.42-.09,.49,0,.53,.04,.53,.49v3.28c0,.44-.04,.49-.53,.49-.27,0-1.51-.09-5.42-.09H14.34c-.35,1.33-.75,2.62-1.2,3.91h12.43c3.91,0,5.24-.09,5.5-.09,.44,0,.58,.09,.53,.58-.13,1.24-.22,2.84-.35,4.22-.09,1.02-.22,1.95-.31,2.8h2.4c3.95,0,5.55-.09,5.81-.09,.44,0,.44,.04,.44,.49v3.37c0,.44,0,.49-.44,.49-.27,0-1.86-.09-5.81-.09h-2.97c-.44,2.35-1.07,4.17-1.82,5.86-1.15,2.49-3.02,3.55-5.86,3.55-.98,0-2.49,0-3.91-.13s-1.42-.13-1.69-1.55c-.22-1.2-.53-2.26-1.02-3.24,2.35,.31,4.31,.44,5.59,.44,1.64,0,2.26-.4,2.8-1.6,.35-.89,.71-1.95,1.02-3.33H6.48Zm25.61-28.45c4.13,0,5.59-.09,5.86-.09,.44,0,.49,.04,.49,.49,0,.27-.09,1.11-.09,2.49v2.13c0,4.13,.09,4.88,.09,5.15,0,.44-.04,.49-.49,.49h-3.73c-.44,0-.49-.04-.49-.49v-6.08H5.68v6.08c0,.44-.04,.49-.49,.49H1.46c-.44,0-.49-.04-.49-.49,0-.27,.09-1.02,.09-5.15v-1.73c0-1.78-.09-2.57-.09-2.89,0-.44,.04-.49,.49-.49,.31,0,1.78,.09,5.9,.09h24.72Z"/><path d="M59.26,54.35c-3.95,0-5.33,.09-5.59,.09-.44,0-.49-.04-.49-.53v-2.93c0-.44,.04-.49,.49-.49,.27,0,1.64,.09,5.59,.09h27.21c3.95,0,5.33-.09,5.59-.09,.44,0,.49,.04,.49,.49v2.93c0,.49-.04,.53-.49,.53-.27,0-1.64-.09-5.59-.09h-7.01c3.15,1.86,7.37,3.06,12.7,3.55-.62,.84-1.24,1.86-1.64,2.8s-.58,1.15-1.15,1.15c-.22,0-.62-.04-.89-.09-4.48-.8-9.23-2.71-12.56-4.88-.4-.22-.4-.31,.13-.71l2.31-1.82h-11.54c.8,.49,1.55,1.07,2.35,1.6,.44,.31,.58,.53,.58,.75,0,.27-.18,.49-.67,.62s-.98,.4-1.73,.75c-2.44,1.29-6.26,2.75-10.39,3.55-.49,.09-.84,.13-1.02,.13-.35,0-.58-.31-.98-1.15-.49-1.02-1.11-1.91-1.78-2.62,4.04-.44,8.57-1.6,11.14-2.8,.44-.22,.89-.49,1.38-.84h-6.44Zm.84-25.48c-4.04,0-5.46,.09-5.73,.09-.44,0-.49-.04-.49-.53v-2.89c0-.44,.04-.49,.49-.49,.27,0,1.69,.09,5.73,.09h10.03v-.22c0-1.46-.04-2.71-.31-3.95,1.55,.04,3.28,.13,4.79,.31,.44,.04,.71,.27,.71,.49,0,.27-.13,.49-.27,.8-.18,.4-.27,.89-.27,2.31v.27h10.88c4.08,0,5.46-.09,5.73-.09,.44,0,.49,.04,.49,.49v2.89c0,.49-.04,.53-.49,.53-.27,0-1.64-.09-5.73-.09h-10.88v2.35h4.88c4.26,0,5.77-.09,6.08-.09,.44,0,.49,.04,.49,.49,0,.27-.09,1.51-.09,4.35v7.95c0,2.84,.09,4.13,.09,4.39,0,.4-.04,.44-.49,.44-.31,0-1.82-.09-6.08-.09h-13.85c-4.26,0-5.81,.09-6.08,.09-.49,0-.53-.04-.53-.44,0-.27,.09-1.55,.09-4.39v-7.95c0-2.84-.09-4.04-.09-4.35,0-.44,.04-.49,.53-.49,.27,0,1.82,.09,6.08,.09h4.31v-2.35h-10.03Zm3.55,5.28v2h18.11v-2h-18.11Zm18.11,6.7v-2h-18.11v2h18.11Zm0,2.89h-18.11v2.04h18.11v-2.04Z"/><path d="M117.32,35.71c-2.57,2-5.33,3.73-8.21,5.24-.53,.27-.8,.44-1.02,.44-.31,0-.49-.31-.84-1.11-.58-1.2-1.29-2.17-2.09-2.97,8.17-3.68,13.45-8.3,17.09-13.58,.8-1.15,1.29-2,1.73-3.15,1.73,.27,3.37,.53,4.66,.84,.53,.18,.8,.31,.8,.71,0,.22-.09,.44-.44,.67-.13,.09-.27,.18-.35,.31,5.28,6.75,11.45,10.88,18.95,13.54-.75,.93-1.42,2.13-1.86,3.37-.27,.84-.44,1.15-.8,1.15-.22,0-.58-.13-1.07-.4-3.15-1.42-6.04-3.06-8.66-4.97v3.11c0,.44-.04,.49-.49,.49-.27,0-1.46-.09-5.02-.09h-6.88c-3.55,0-4.71,.09-5.02,.09-.44,0-.49-.04-.49-.49v-3.2Zm-4.22,25.88c-.44,0-.49-.04-.49-.49,0-.27,.09-1.46,.09-7.9v-3.82c0-3.82-.09-5.1-.09-5.37,0-.44,.04-.49,.49-.49,.27,0,1.82,.09,6.08,.09h14.2c4.26,0,5.81-.09,6.08-.09,.49,0,.53,.04,.53,.49,0,.27-.09,1.55-.09,4.71v4.35c0,6.39,.09,7.59,.09,7.81,0,.44-.04,.49-.53,.49h-3.77c-.44,0-.49-.04-.49-.49v-1.46h-17.8v1.69c0,.44-.04,.49-.53,.49h-3.77Zm4.31-6.21h17.8v-7.72h-17.8v7.72Zm12.3-20.2c2.62,0,3.95-.04,4.57-.04-3.2-2.44-5.9-5.28-8.17-8.43-2.31,3.2-5.06,5.95-8.08,8.39,.53,.04,1.78,.09,4.79,.09h6.88Z"/><path d="M186.03,32.64c.22,4.97,.84,9.01,1.82,12.56,1.07-1.73,1.95-3.46,2.66-5.19,.49-1.29,.93-2.57,1.2-4.08,1.55,.44,3.15,1.11,4.13,1.6,.44,.22,.67,.44,.67,.71,0,.31-.31,.58-.62,.93-.31,.31-.58,.84-1.11,2.18-1.38,3.15-3.06,6.21-5.06,9.01,1.6,3.42,3.64,5.55,4.75,5.55,1.02,0,1.55-1.33,1.82-5.46,.58,.67,1.55,1.24,2.49,1.73q1.29,.67,1.07,2.04c-.71,4.75-2.31,6.92-5.02,6.92-3.06,0-5.99-2.84-8.21-6.97-2.35,2.57-5.02,4.84-8.03,6.61-.53,.31-.84,.49-1.07,.49-.27,0-.49-.27-.93-.93-.71-1.02-1.51-1.78-2.26-2.35,4.04-2.13,7.5-5.06,10.3-8.35-1.86-4.75-2.84-10.03-3.24-17h-13.67v5.73h6.39c2.71,0,3.51-.09,3.77-.09,.44,0,.53,.09,.53,.58-.09,1.69-.13,3.55-.22,4.88-.22,3.77-.35,6.17-1.02,8.26-.8,2.31-2.49,3.68-5.15,3.68-.8,0-1.46,0-2.26-.09-1.02-.09-1.07-.09-1.29-1.46-.22-1.29-.58-2.4-1.06-3.2,1.6,.27,2.53,.36,3.64,.36,1.02,0,1.78-.27,2.13-1.6,.36-1.15,.53-3.6,.67-7.15h-6.21c-.13,3.06-.4,5.55-.8,7.77-.58,3.28-1.51,6.79-3.46,10.39-.31,.58-.53,.84-.75,.84s-.49-.22-.89-.71c-.84-.98-1.91-1.95-2.75-2.49,2.04-2.97,2.93-6.48,3.46-9.81,.4-2.75,.62-5.86,.62-10.74,0-6.04-.09-8.66-.09-8.92,0-.49,.04-.53,.53-.53,.27,0,1.73,.09,5.95,.09h11.81v-.93c-.04-2.97-.04-4.04-.35-6.26,1.69,.09,3.2,.13,4.79,.31,.44,.04,.67,.27,.67,.53,0,.36-.13,.62-.22,.84-.18,.53-.27,1.46-.22,4.44v1.07h6.66c4.17,0,5.64-.09,5.9-.09,.44,0,.49,.04,.49,.53v3.37c0,.44-.04,.49-.49,.49-.27,0-1.73-.09-5.9-.09h-6.52Zm5.19-10.96c.44-.31,.58-.31,.93-.04,1.29,.98,2.66,2.22,3.82,3.73,.27,.36,.27,.53-.22,.84l-2.13,1.6c-.27,.18-.44,.31-.58,.31s-.22-.13-.35-.31c-1.07-1.64-2.35-2.89-3.6-3.91-.18-.18-.27-.27-.27-.4s.13-.22,.36-.4l2.04-1.42Z"/><path d="M244.72,45.69c-6.21,.49-12.83,.89-19.18,1.15-.84,.04-1.11,.09-1.42,.22-.22,.09-.44,.18-.67,.18-.27,0-.49-.18-.58-.58-.22-1.02-.44-2.35-.62-3.64,1.64,.04,3.15,.09,4.71,.09,.93-1.33,1.64-2.66,2.22-3.91h-8.21c-.13,3.28-.44,6.75-.93,9.59-.75,4.17-1.73,7.77-3.82,11.23-.35,.53-.49,.8-.71,.8-.18,0-.4-.22-.84-.71-.93-1.07-2.09-2.04-2.93-2.57,2.26-3.24,3.2-6.44,3.86-10.34,.62-3.68,.98-8.26,.98-14.69s-.09-9.05-.09-9.32c0-.49,.04-.53,.44-.53,.27,0,1.82,.09,6.13,.09h20.73c4.31,0,5.86-.09,6.13-.09,.44,0,.49,.04,.49,.53,0,.27-.09,1.02-.09,3.06v3.42c0,2,.09,2.75,.09,3.02,0,.44-.04,.49-.49,.49-.27,0-1.82-.09-6.13-.09h-22.73v2.49h23.84c4.35,0,5.86-.09,6.13-.09,.49,0,.53,.04,.53,.49v2.84c0,.44-.04,.49-.53,.49-.27,0-1.78-.09-6.13-.09h-1.38c2.4,2,4.22,3.91,6.39,6.35,.31,.4,.27,.49-.27,.84l-2.26,1.55c-.31,.22-.44,.31-.58,.31s-.22-.09-.35-.31l-1.73-2.26Zm-19.09,14.83c-4.31,0-5.77,.09-6.04,.09-.44,0-.49-.04-.49-.53v-2.84c0-.44,.04-.49,.49-.49,.27,0,1.73,.09,6.04,.09h7.37v-3.02h-3.64c-4.22,0-5.73,.09-5.99,.09-.44,0-.49-.04-.49-.49v-2.66c0-.49,.04-.53,.49-.53,.27,0,1.78,.09,5.99,.09h3.64v-.09c0-1.42-.04-2.31-.22-3.24,1.38,.04,2.75,.13,4.17,.27,.53,.04,.89,.27,.89,.49,0,.31-.09,.49-.27,.89-.13,.36-.22,.84-.22,1.55v.13h5.15c4.26,0,5.68-.09,5.95-.09,.49,0,.53,.04,.53,.53v2.66c0,.44-.04,.49-.53,.49-.27,0-1.69-.09-5.95-.09h-5.15v3.02h8.43c4.31,0,5.81-.09,6.04-.09,.44,0,.49,.04,.49,.49v2.84c0,.49-.04,.53-.49,.53-.22,0-1.73-.09-6.04-.09h-20.15Zm20.11-34.13h-24.68v3.15h24.68v-3.15Zm-5.46,14.6c-.35-.31-.4-.4,.13-.71l2.04-1.07h-8.66c-.71,1.42-1.42,2.66-2.22,3.82,3.24-.13,6.75-.27,10.25-.53l-1.55-1.51Z"/></g></g></svg>